<?xml version="1.0" encoding="utf-8"?>
<!-- Generator: Adobe Illustrator 22.0.1, SVG Export Plug-In . SVG Version: 6.00 Build 0)  -->
<!DOCTYPE svg PUBLIC "-//W3C//DTD SVG 1.1//EN" "http://www.w3.org/Graphics/SVG/1.1/DTD/svg11.dtd">
<svg version="1.1" id="Layer_1" xmlns="http://www.w3.org/2000/svg" xmlns:xlink="http://www.w3.org/1999/xlink" x="0px" y="0px"
	 viewBox="0 0 500 500" style="enable-background:new 0 0 500 500;" xml:space="preserve">
<style type="text/css">
	.st0{fill:#115593;}
</style>
<path class="st0" d="M352.9,270.5l-30-75h-85.5v-30h75v-30h-75v-33c18-6,30-22.5,30-42c0-25.5-19.5-45-45-45c-25.5,0-45,19.5-45,45
	c0,19.5,12,36,30,42v18c-51,4.5-90,46.5-90,97.5c0,54,43.5,97.5,97.5,97.5c45,0,82.5-31.5,94.5-73.5l22.5,58.5h55.5v-30H352.9z
	 M222.4,45.5c9,0,15,6,15,15s-6,15-15,15s-15-6-15-15S213.4,45.5,222.4,45.5z M214.9,285.5c-37.5,0-67.5-30-67.5-67.5
	c0-34.5,27-63,60-66v73.5h73.5C277.9,258.5,249.4,285.5,214.9,285.5z"/>
<g>
	<path class="st0" d="M119.8,409.6H114c-0.6,0-1.2-0.2-1.6-0.5c-0.4-0.3-0.7-0.7-0.9-1.2l-3-8.2H91.9l-3,8.2
		c-0.1,0.4-0.4,0.8-0.9,1.2c-0.4,0.4-1,0.5-1.6,0.5h-5.8l15.8-40.2h7.6L119.8,409.6z M106.6,394.4l-4.9-13.4
		c-0.2-0.6-0.5-1.3-0.8-2.1c-0.3-0.8-0.5-1.7-0.8-2.6c-0.2,0.9-0.5,1.8-0.8,2.7c-0.3,0.8-0.5,1.5-0.8,2.2l-4.9,13.3H106.6z"/>
	<path class="st0" d="M153.1,400.1c0.4,0,0.8,0.2,1.1,0.5l2.9,3.2c-1.6,2-3.6,3.6-6,4.6c-2.4,1.1-5.2,1.6-8.6,1.6
		c-3,0-5.7-0.5-8-1.5c-2.4-1-4.4-2.4-6.1-4.3c-1.7-1.8-3-4-3.9-6.5c-0.9-2.5-1.3-5.3-1.3-8.3c0-3,0.5-5.8,1.4-8.3
		c1-2.5,2.3-4.7,4.1-6.5s3.8-3.2,6.3-4.2c2.4-1,5.1-1.5,8.1-1.5c2.9,0,5.5,0.5,7.8,1.4s4.2,2.2,5.8,3.8l-2.5,3.5
		c-0.1,0.2-0.3,0.4-0.6,0.6c-0.2,0.2-0.6,0.2-1,0.2c-0.3,0-0.6-0.1-0.9-0.2c-0.3-0.2-0.6-0.4-1-0.6c-0.4-0.2-0.8-0.5-1.2-0.8
		c-0.5-0.3-1-0.5-1.6-0.8c-0.6-0.2-1.3-0.4-2.1-0.6s-1.7-0.2-2.8-0.2c-1.8,0-3.4,0.3-4.9,1c-1.5,0.6-2.8,1.6-3.8,2.8
		s-1.9,2.7-2.5,4.4c-0.6,1.8-0.9,3.7-0.9,6c0,2.3,0.3,4.3,1,6s1.5,3.2,2.6,4.4c1.1,1.2,2.4,2.1,3.9,2.8c1.5,0.6,3.1,1,4.8,1
		c1,0,1.9-0.1,2.8-0.2c0.8-0.1,1.6-0.3,2.3-0.5c0.7-0.2,1.4-0.6,2-0.9c0.6-0.4,1.2-0.8,1.8-1.4c0.2-0.2,0.4-0.3,0.6-0.4
		C152.7,400.2,152.9,400.1,153.1,400.1z"/>
	<path class="st0" d="M191.8,400.1c0.4,0,0.8,0.2,1.1,0.5l2.9,3.2c-1.6,2-3.6,3.6-6,4.6c-2.4,1.1-5.2,1.6-8.6,1.6
		c-3,0-5.7-0.5-8-1.5c-2.4-1-4.4-2.4-6.1-4.3c-1.7-1.8-3-4-3.9-6.5c-0.9-2.5-1.3-5.3-1.3-8.3c0-3,0.5-5.8,1.4-8.3
		c1-2.5,2.3-4.7,4.1-6.5s3.8-3.2,6.3-4.2c2.4-1,5.1-1.5,8.1-1.5c2.9,0,5.5,0.5,7.8,1.4s4.2,2.2,5.8,3.8l-2.5,3.5
		c-0.1,0.2-0.3,0.4-0.6,0.6c-0.2,0.2-0.6,0.2-1,0.2c-0.3,0-0.6-0.1-0.9-0.2c-0.3-0.2-0.6-0.4-1-0.6c-0.4-0.2-0.8-0.5-1.2-0.8
		c-0.5-0.3-1-0.5-1.6-0.8c-0.6-0.2-1.3-0.4-2.1-0.6s-1.7-0.2-2.8-0.2c-1.8,0-3.4,0.3-4.9,1c-1.5,0.6-2.8,1.6-3.8,2.8
		s-1.9,2.7-2.5,4.4c-0.6,1.8-0.9,3.7-0.9,6c0,2.3,0.3,4.3,1,6s1.5,3.2,2.6,4.4c1.1,1.2,2.4,2.1,3.9,2.8c1.5,0.6,3.1,1,4.8,1
		c1,0,1.9-0.1,2.8-0.2c0.8-0.1,1.6-0.3,2.3-0.5c0.7-0.2,1.4-0.6,2-0.9c0.6-0.4,1.2-0.8,1.8-1.4c0.2-0.2,0.4-0.3,0.6-0.4
		C191.4,400.2,191.6,400.1,191.8,400.1z"/>
	<path class="st0" d="M211.3,375.4v11.1h14.1v5.8h-14.1v11.4h17.8v6h-25.3v-40.2h25.3v5.9H211.3z"/>
	<path class="st0" d="M259.9,376.7c-0.2,0.4-0.5,0.7-0.7,0.8c-0.2,0.2-0.6,0.3-0.9,0.3c-0.4,0-0.8-0.1-1.3-0.4s-1-0.6-1.6-1
		c-0.6-0.4-1.4-0.7-2.2-1c-0.8-0.3-1.8-0.4-3-0.4c-1,0-1.9,0.1-2.7,0.4c-0.8,0.2-1.4,0.6-2,1c-0.5,0.4-0.9,1-1.2,1.6
		c-0.3,0.6-0.4,1.3-0.4,2c0,0.9,0.3,1.7,0.8,2.4c0.5,0.6,1.2,1.2,2.1,1.6c0.9,0.4,1.9,0.8,3,1.2c1.1,0.4,2.3,0.7,3.4,1.1
		c1.2,0.4,2.3,0.9,3.4,1.4c1.1,0.5,2.1,1.2,3,2c0.9,0.8,1.6,1.8,2.1,3c0.5,1.2,0.8,2.6,0.8,4.3c0,1.8-0.3,3.5-0.9,5.1
		c-0.6,1.6-1.5,3-2.7,4.1c-1.2,1.2-2.7,2.1-4.4,2.8s-3.7,1-5.9,1c-1.3,0-2.5-0.1-3.8-0.4s-2.4-0.6-3.6-1.1s-2.2-1-3.2-1.7
		c-1-0.6-1.9-1.4-2.7-2.2l2.2-3.6c0.2-0.3,0.4-0.5,0.7-0.7c0.3-0.2,0.6-0.3,0.9-0.3c0.5,0,1,0.2,1.5,0.6c0.5,0.4,1.2,0.8,1.9,1.3
		c0.7,0.5,1.6,0.9,2.6,1.3c1,0.4,2.2,0.6,3.6,0.6c2.1,0,3.8-0.5,4.9-1.5c1.2-1,1.8-2.5,1.8-4.3c0-1.1-0.3-1.9-0.8-2.6
		c-0.5-0.7-1.2-1.2-2.1-1.7c-0.9-0.5-1.9-0.8-3-1.2c-1.1-0.3-2.2-0.7-3.4-1c-1.1-0.4-2.3-0.8-3.4-1.3c-1.1-0.5-2.1-1.2-3-2
		c-0.9-0.8-1.6-1.9-2.1-3.1c-0.5-1.2-0.8-2.8-0.8-4.6c0-1.5,0.3-2.9,0.9-4.3c0.6-1.4,1.4-2.6,2.5-3.7c1.1-1.1,2.5-1.9,4.1-2.6
		s3.5-1,5.6-1c2.4,0,4.6,0.4,6.6,1.1c2,0.7,3.7,1.8,5.1,3.1L259.9,376.7z"/>
	<path class="st0" d="M293.2,376.7c-0.2,0.4-0.5,0.7-0.7,0.8c-0.2,0.2-0.6,0.3-0.9,0.3c-0.4,0-0.8-0.1-1.3-0.4s-1-0.6-1.6-1
		c-0.6-0.4-1.4-0.7-2.2-1c-0.8-0.3-1.8-0.4-3-0.4c-1,0-1.9,0.1-2.7,0.4c-0.8,0.2-1.4,0.6-2,1c-0.5,0.4-0.9,1-1.2,1.6
		c-0.3,0.6-0.4,1.3-0.4,2c0,0.9,0.3,1.7,0.8,2.4c0.5,0.6,1.2,1.2,2.1,1.6c0.9,0.4,1.9,0.8,3,1.2s2.2,0.7,3.4,1.1
		c1.2,0.4,2.3,0.9,3.4,1.4c1.1,0.5,2.1,1.2,3,2c0.9,0.8,1.6,1.8,2.1,3c0.5,1.2,0.8,2.6,0.8,4.3c0,1.8-0.3,3.5-0.9,5.1
		c-0.6,1.6-1.5,3-2.7,4.1c-1.2,1.2-2.7,2.1-4.4,2.8s-3.7,1-5.9,1c-1.3,0-2.5-0.1-3.8-0.4c-1.2-0.2-2.4-0.6-3.6-1.1
		c-1.1-0.5-2.2-1-3.2-1.7c-1-0.6-1.9-1.4-2.7-2.2l2.2-3.6c0.2-0.3,0.4-0.5,0.7-0.7c0.3-0.2,0.6-0.3,0.9-0.3c0.5,0,1,0.2,1.5,0.6
		c0.5,0.4,1.2,0.8,1.9,1.3c0.7,0.5,1.6,0.9,2.6,1.3c1,0.4,2.2,0.6,3.6,0.6c2.1,0,3.8-0.5,4.9-1.5c1.2-1,1.8-2.5,1.8-4.3
		c0-1.1-0.3-1.9-0.8-2.6c-0.5-0.7-1.2-1.2-2.1-1.7c-0.9-0.5-1.9-0.8-3-1.2c-1.1-0.3-2.2-0.7-3.4-1c-1.1-0.4-2.3-0.8-3.4-1.3
		c-1.1-0.5-2.1-1.2-3-2c-0.9-0.8-1.6-1.9-2.1-3.1c-0.5-1.2-0.8-2.8-0.8-4.6c0-1.5,0.3-2.9,0.9-4.3c0.6-1.4,1.4-2.6,2.5-3.7
		s2.5-1.9,4.1-2.6s3.5-1,5.6-1c2.4,0,4.6,0.4,6.6,1.1c2,0.7,3.7,1.8,5.1,3.1L293.2,376.7z"/>
	<path class="st0" d="M312.5,409.6H305v-40.2h7.5V409.6z"/>
	<path class="st0" d="M338.1,369.4c2.6,0,4.9,0.2,6.8,0.8c1.9,0.5,3.4,1.2,4.6,2.1c1.2,0.9,2.1,2,2.6,3.4c0.6,1.3,0.8,2.8,0.8,4.4
		c0,0.9-0.1,1.8-0.4,2.7c-0.3,0.9-0.7,1.7-1.3,2.4c-0.6,0.8-1.3,1.4-2.2,2c-0.9,0.6-2,1.1-3.2,1.6c5.5,1.2,8.3,4.2,8.3,8.9
		c0,1.7-0.3,3.3-1,4.7c-0.6,1.4-1.6,2.7-2.8,3.7c-1.2,1-2.8,1.9-4.6,2.5s-3.9,0.9-6.2,0.9h-15.2v-40.2H338.1z M331.8,375.2v11.6h5.9
		c2.6,0,4.5-0.5,5.8-1.4c1.3-0.9,2-2.4,2-4.4c0-2.1-0.6-3.6-1.8-4.5c-1.2-0.9-3-1.3-5.6-1.3H331.8z M339.3,403.8
		c1.4,0,2.6-0.2,3.5-0.5c0.9-0.3,1.7-0.8,2.3-1.3c0.6-0.6,1-1.2,1.2-1.9c0.2-0.7,0.4-1.5,0.4-2.4c0-0.9-0.1-1.7-0.4-2.3
		c-0.3-0.7-0.7-1.3-1.3-1.8c-0.6-0.5-1.4-0.9-2.3-1.1c-0.9-0.3-2.1-0.4-3.4-0.4h-7.5v11.8H339.3z"/>
	<path class="st0" d="M387.2,403.4v6.2h-23.5v-40.2h7.5v34H387.2z"/>
	<path class="st0" d="M402.8,375.4v11.1h14.1v5.8h-14.1v11.4h17.8v6h-25.3v-40.2h25.3v5.9H402.8z"/>
	<path class="st0" d="M212,476.3h-5.8c-0.6,0-1.2-0.2-1.6-0.5c-0.4-0.3-0.7-0.7-0.9-1.2l-3-8.2h-16.6l-3,8.2
		c-0.1,0.4-0.4,0.8-0.9,1.2c-0.4,0.4-1,0.5-1.6,0.5h-5.8l15.8-40.2h7.6L212,476.3z M198.8,461.1l-4.9-13.4c-0.2-0.6-0.5-1.3-0.8-2.1
		c-0.3-0.8-0.5-1.7-0.8-2.6c-0.2,0.9-0.5,1.8-0.8,2.7c-0.3,0.8-0.5,1.5-0.8,2.2l-4.9,13.3H198.8z"/>
	<path class="st0" d="M226.4,476.3h-7.5v-40.2h7.5V476.3z"/>
	<path class="st0" d="M259.6,443.4c-0.2,0.4-0.5,0.7-0.7,0.8c-0.2,0.2-0.6,0.3-0.9,0.3c-0.4,0-0.8-0.1-1.3-0.4c-0.5-0.3-1-0.6-1.6-1
		c-0.6-0.4-1.4-0.7-2.2-1c-0.8-0.3-1.8-0.4-3-0.4c-1,0-1.9,0.1-2.7,0.4c-0.8,0.2-1.4,0.6-2,1c-0.5,0.4-0.9,1-1.2,1.6
		c-0.3,0.6-0.4,1.3-0.4,2c0,0.9,0.3,1.7,0.8,2.4c0.5,0.6,1.2,1.2,2.1,1.6c0.9,0.4,1.9,0.8,3,1.2s2.2,0.7,3.4,1.1
		c1.2,0.4,2.3,0.9,3.4,1.4c1.1,0.5,2.1,1.2,3,2c0.9,0.8,1.6,1.8,2.1,3s0.8,2.6,0.8,4.3c0,1.8-0.3,3.5-0.9,5.1s-1.5,3-2.7,4.1
		c-1.2,1.2-2.7,2.1-4.4,2.8s-3.7,1-5.9,1c-1.3,0-2.5-0.1-3.8-0.4s-2.4-0.6-3.6-1.1s-2.2-1-3.2-1.7c-1-0.6-1.9-1.4-2.7-2.2l2.2-3.6
		c0.2-0.3,0.4-0.5,0.7-0.7c0.3-0.2,0.6-0.3,0.9-0.3c0.5,0,1,0.2,1.5,0.6c0.5,0.4,1.2,0.8,1.9,1.3c0.7,0.5,1.6,0.9,2.6,1.3
		c1,0.4,2.2,0.6,3.6,0.6c2.1,0,3.8-0.5,4.9-1.5s1.8-2.5,1.8-4.3c0-1.1-0.3-1.9-0.8-2.6s-1.2-1.2-2.1-1.7c-0.9-0.5-1.9-0.8-3-1.2
		c-1.1-0.3-2.2-0.7-3.4-1c-1.1-0.4-2.3-0.8-3.4-1.3c-1.1-0.5-2.1-1.2-3-2c-0.9-0.8-1.6-1.9-2.1-3.1c-0.5-1.2-0.8-2.8-0.8-4.6
		c0-1.5,0.3-2.9,0.9-4.3c0.6-1.4,1.4-2.6,2.5-3.7c1.1-1.1,2.5-1.9,4.1-2.6s3.5-1,5.6-1c2.4,0,4.6,0.4,6.6,1.1c2,0.7,3.7,1.8,5.1,3.1
		L259.6,443.4z"/>
	<path class="st0" d="M295,470.1v6.2h-23.5v-40.2h7.5v34H295z"/>
	<path class="st0" d="M310.6,442v11.1h14.1v5.8h-14.1v11.4h17.8v6h-25.3v-40.2h25.3v5.9H310.6z"/>
</g>
</svg>
