<?xml version="1.0" encoding="utf-8"?>
<!-- Generator: Adobe Illustrator 20.0.0, SVG Export Plug-In . SVG Version: 6.00 Build 0)  -->
<!DOCTYPE svg PUBLIC "-//W3C//DTD SVG 1.1//EN" "http://www.w3.org/Graphics/SVG/1.1/DTD/svg11.dtd">
<svg version="1.1" id="Layer_1" xmlns="http://www.w3.org/2000/svg" xmlns:xlink="http://www.w3.org/1999/xlink" x="0px" y="0px"
	 viewBox="0 0 186 186" style="enable-background:new 0 0 186 186;" xml:space="preserve">
<style type="text/css">
	.st0{opacity:0.2;}
	.st1{fill:#0D7ABA;}
	.st2{fill:#2487C7;}
	.st3{fill:#2E3333;}
	.st4{fill:#FFFFFF;}
	.st5{fill:#788F9B;}
</style>
<title>Artboard 2</title>
<g>
	<g>
		<g class="st0">
			<path class="st1" d="M148.5,84.3c3.9,0,7-3.2,7-7c0-2-0.9-3.9-2.4-5.3l-62-52.7c-2.6-2.2-6.5-2.2-9.1,0L20,72
				c-2.9,2.5-3.3,6.9-0.8,9.9c1.3,1.6,3.3,2.5,5.3,2.5H31v53.1h-7.5c-2.8,0-5,2.2-5,5v11c0,2.8,2.2,5,5,5h126c2.8,0,5-2.2,5-5v-11
				c0-2.8-2.2-5-5-5H142V84.3H148.5z M76,137.4H52V84.3h24V137.4z M97,84.3h24v53.1H97V84.3z"/>
		</g>
		<g>
			<g>
				<rect x="47" y="75.9" class="st2" width="15" height="74"/>
				<path class="st3" d="M65,152.9H44v-80h21V152.9z M50,146.9h9v-68h-9V146.9z"/>
			</g>
			<g>
				<rect x="92" y="75.9" class="st2" width="15" height="74"/>
				<path class="st3" d="M110,152.9H89v-80h21V152.9z M95,146.9h9v-68h-9V146.9z"/>
			</g>
			<g>
				<rect x="137" y="75.9" class="st2" width="15" height="74"/>
				<path class="st3" d="M155,152.9h-21v-80h21V152.9z M140,146.9h9v-68h-9V146.9z"/>
			</g>
			<g>
				<path class="st4" d="M34.5,158.4v-11c0-1.1,0.9-2,2-2h126c1.1,0,2,0.9,2,2v11c0,1.1-0.9,2-2,2h-126
					C35.4,160.4,34.5,159.5,34.5,158.4z"/>
				<path class="st3" d="M162.5,163.4h-126c-2.8,0-5-2.2-5-5v-11c0-2.8,2.2-5,5-5h126c2.8,0,5,2.2,5,5v11
					C167.5,161.2,165.3,163.4,162.5,163.4z M37.5,157.4h124v-9h-124V157.4z"/>
			</g>
			<g>
				<path class="st4" d="M96.9,26.5l-62,52.7c-1.7,1.5-1.8,4-0.4,5.6c0.7,0.8,1.8,1.3,2.9,1.4h124c2.2,0,4-1.8,3.9-4.1
					c0-1.1-0.5-2.2-1.4-2.9l-62-52.7C100.6,25.2,98.4,25.2,96.9,26.5z"/>
				<path class="st3" d="M161.5,89.3H37.5c-3.9,0-7-3.2-7-7c0-2,0.9-3.9,2.4-5.3l62-52.7c2.6-2.2,6.5-2.2,9.1,0L166,77
					c2.9,2.5,3.3,6.9,0.8,9.9C165.5,88.4,163.5,89.3,161.5,89.3L161.5,89.3z M98.9,28.8l-62,52.7c-0.4,0.4-0.5,1-0.1,1.4
					c0.2,0.2,0.5,0.4,0.8,0.4h124c0.6,0,1-0.4,1-1c0-0.3-0.1-0.6-0.4-0.8l-62-52.7C99.8,28.5,99.3,28.5,98.9,28.8L98.9,28.8z"/>
			</g>
		</g>
	</g>
	<circle class="st5" cx="99.5" cy="61.9" r="9.4"/>
</g>
</svg>
