<?xml version="1.0" encoding="utf-8"?>
<!-- Generator: Adobe Illustrator 20.0.0, SVG Export Plug-In . SVG Version: 6.00 Build 0)  -->
<!DOCTYPE svg PUBLIC "-//W3C//DTD SVG 1.1//EN" "http://www.w3.org/Graphics/SVG/1.1/DTD/svg11.dtd">
<svg version="1.1" id="Layer_1" xmlns="http://www.w3.org/2000/svg" xmlns:xlink="http://www.w3.org/1999/xlink" x="0px" y="0px"
	 viewBox="0 0 186 186" style="enable-background:new 0 0 186 186;" xml:space="preserve">
<style type="text/css">
	.st0{opacity:0.2;}
	.st1{fill:#0D7ABA;}
	.st2{fill:#FFFFFF;}
	.st3{fill:#2E3333;}
	.st4{fill:#2487C7;}
	.st5{fill:#788F9B;}
</style>
<title>Artboard 2</title>
<g>
	<g class="st0">
		<path class="st1" d="M27,40.5h115c8.3,0,15,6.7,15,15v60c0,8.3-6.7,15-15,15H27c-8.3,0-15-6.7-15-15v-60
			C12,47.2,18.7,40.5,27,40.5z"/>
	</g>
	<g>
		<g>
			<path class="st2" d="M44,58.5h115c6.6,0,12,5.4,12,12v60c0,6.6-5.4,12-12,12H44c-6.6,0-12-5.4-12-12v-60
				C32,63.9,37.4,58.5,44,58.5z"/>
			<path class="st3" d="M159,145.5H44c-8.3,0-15-6.7-15-15v-60c0-8.3,6.7-15,15-15l0,0h115c8.3,0,15,6.7,15,15l0,0v60
				C174,138.8,167.3,145.5,159,145.5z M44,61.5c-5,0-9,4-9,9v60c0,5,4,9,9,9h115c5,0,9-4,9-9v-60c0-5-4-9-9-9H44z"/>
		</g>
		<g>
			<rect x="32" y="78.5" class="st4" width="139" height="15"/>
			<path class="st3" d="M174,96.5H29v-21h145V96.5z M35,90.5h133v-9H35V90.5z"/>
		</g>
		<path class="st5" d="M101.6,123.1h24c1.7,0,3,1.3,3,3l0,0c0,1.7-1.3,3-3,3h-24c-1.7,0-3-1.3-3-3l0,0
			C98.6,124.5,99.9,123.1,101.6,123.1z"/>
		<path class="st5" d="M140.6,123.1h14c1.7,0,3,1.3,3,3l0,0c0,1.7-1.3,3-3,3h-14c-1.7,0-3-1.3-3-3l0,0
			C137.6,124.5,138.9,123.1,140.6,123.1z"/>
	</g>
</g>
</svg>
