<svg fill="#000000" xmlns="http://www.w3.org/2000/svg" xmlns:xlink="http://www.w3.org/1999/xlink" version="1.1" x="0px" y="0px" viewBox="0 0 100 100" enable-background="new 0 0 100 100" xml:space="preserve"><g><path d="M36.183,97.5c-0.796,0-1.439-0.645-1.439-1.439c0-8.71,0.144-17.618,0.281-26.232c0.286-17.874,0.582-36.253-0.366-54.359   c-2.189,10.077-5.513,20.707-10.46,27.508c-2.095,3.098-4.645,6.059-7.113,8.923C11.637,58.226,6.493,64.2,5.365,72.08   c-0.115,0.79-0.854,1.308-1.627,1.223c-0.787-0.112-1.335-0.843-1.223-1.628c1.249-8.715,6.913-15.293,12.392-21.652   c2.412-2.803,4.906-5.698,6.936-8.698c6.919-9.512,10.52-27.641,12.055-37.604C34.009,3,34.744,2.464,35.368,2.502   c0.73,0.024,1.324,0.59,1.386,1.316c1.858,21.889,1.498,44.344,1.149,66.058c-0.138,8.603-0.28,17.497-0.28,26.185   C37.623,96.855,36.978,97.5,36.183,97.5z"/></g><g><path d="M44.243,47.122c-0.31,0-0.621-0.099-0.883-0.304c-0.63-0.488-0.742-1.392-0.253-2.02   c0.132-0.17,13.423-17.018,18.731-15.775c3.627,1.006,3.503,4.366,3.43,6.373c-0.033,0.876-0.075,2.073,0.223,2.356   c0.132,0.125,0.56,0.236,1.366,0.163c0.931-0.084,1.442-0.474,2.038-0.926c0.947-0.721,2.39-1.808,4.875-0.313   c1.197,0.593,1.658,1.811,2.029,2.789c0.394,1.042,0.61,1.487,1.192,1.707c2.044,0.734,11.223-0.323,18.811-1.702   c0.765-0.146,1.531,0.374,1.675,1.158c0.141,0.782-0.376,1.531-1.158,1.673c-2.738,0.5-16.604,2.935-20.325,1.57   c-1.872-0.704-2.46-2.254-2.888-3.388c-0.27-0.709-0.452-1.151-0.72-1.285c-0.925-0.548-0.955-0.523-1.751,0.084   c-0.745,0.566-1.766,1.342-3.52,1.501c-1.595,0.145-2.783-0.162-3.607-0.94c-1.242-1.178-1.175-2.97-1.119-4.552   c0.091-2.399-0.064-3.146-1.259-3.478c-2.056-0.436-10.989,8.628-15.751,14.754C45.094,46.93,44.67,47.122,44.243,47.122z"/></g></svg>