<?xml version="1.0" encoding="utf-8"?>
<!-- Generator: Adobe Illustrator 20.0.0, SVG Export Plug-In . SVG Version: 6.00 Build 0)  -->
<!DOCTYPE svg PUBLIC "-//W3C//DTD SVG 1.1//EN" "http://www.w3.org/Graphics/SVG/1.1/DTD/svg11.dtd">
<svg version="1.1" id="Layer_1" xmlns="http://www.w3.org/2000/svg" xmlns:xlink="http://www.w3.org/1999/xlink" x="0px" y="0px"
	 viewBox="0 0 494 300" style="enable-background:new 0 0 494 300;" xml:space="preserve">
<style type="text/css">
	.st0{fill:#CCCCCC;}
</style>
<g>
	<path class="st0" d="M154.4,108.6c0,2-0.7,3.5-2,4.5c-1.3,1.1-3.3,1.6-5.7,1.6h-2.3v7.6h-2.3v-19.4h5
		C152,102.9,154.4,104.8,154.4,108.6z M144.4,112.8h2c2,0,3.4-0.3,4.3-1c0.9-0.6,1.3-1.7,1.3-3.1c0-1.3-0.4-2.2-1.3-2.9
		c-0.8-0.6-2.1-0.9-3.9-0.9h-2.5V112.8z"/>
	<path class="st0" d="M160.3,122.3h-2.2v-20.6h2.2V122.3z"/>
	<path class="st0" d="M171.1,122.6c-2.1,0-3.8-0.7-5.1-2c-1.2-1.3-1.9-3.1-1.9-5.4c0-2.3,0.6-4.2,1.7-5.6c1.2-1.4,2.7-2.1,4.6-2.1
		c1.8,0,3.3,0.6,4.3,1.8c1.1,1.2,1.6,2.8,1.6,4.7v1.4h-10c0,1.7,0.5,3,1.3,3.9s2,1.3,3.5,1.3c1.6,0,3.1-0.3,4.6-1v2
		c-0.8,0.3-1.5,0.6-2.2,0.7C172.9,122.5,172.1,122.6,171.1,122.6z M170.5,109.4c-1.2,0-2.1,0.4-2.8,1.1s-1.1,1.8-1.2,3.2h7.6
		c0-1.4-0.3-2.4-0.9-3.2C172.6,109.7,171.7,109.4,170.5,109.4z"/>
	<path class="st0" d="M189.1,122.3l-0.4-2.1h-0.1c-0.7,0.9-1.4,1.5-2.2,1.8c-0.7,0.3-1.6,0.5-2.7,0.5c-1.4,0-2.6-0.4-3.4-1.1
		c-0.8-0.7-1.2-1.8-1.2-3.2c0-2.9,2.3-4.5,7-4.6l2.5-0.1v-0.9c0-1.1-0.2-2-0.7-2.5s-1.3-0.8-2.4-0.8c-1.2,0-2.6,0.4-4.1,1.1
		l-0.7-1.7c0.7-0.4,1.5-0.7,2.4-0.9c0.9-0.2,1.7-0.3,2.6-0.3c1.7,0,3,0.4,3.8,1.2s1.3,2,1.3,3.7v9.9H189.1z M184.2,120.8
		c1.4,0,2.4-0.4,3.2-1.1c0.8-0.8,1.2-1.8,1.2-3.2v-1.3l-2.2,0.1c-1.7,0.1-3,0.3-3.8,0.8s-1.2,1.2-1.2,2.2c0,0.8,0.2,1.4,0.7,1.8
		C182.6,120.6,183.3,120.8,184.2,120.8z"/>
	<path class="st0" d="M204.7,118.4c0,1.4-0.5,2.4-1.5,3.1c-1,0.7-2.4,1.1-4.2,1.1c-1.9,0-3.4-0.3-4.5-0.9v-2
		c0.7,0.4,1.4,0.6,2.2,0.8c0.8,0.2,1.6,0.3,2.3,0.3c1.1,0,2-0.2,2.7-0.5c0.6-0.4,0.9-0.9,0.9-1.7c0-0.6-0.2-1-0.7-1.5
		c-0.5-0.4-1.4-0.9-2.9-1.4c-1.4-0.5-2.3-0.9-2.9-1.3c-0.6-0.4-1-0.8-1.3-1.3s-0.4-1-0.4-1.7c0-1.2,0.5-2.1,1.4-2.8s2.3-1,4-1
		c1.6,0,3.1,0.3,4.6,1l-0.8,1.8c-1.5-0.6-2.8-0.9-4-0.9c-1,0-1.8,0.2-2.4,0.5c-0.5,0.3-0.8,0.8-0.8,1.4c0,0.4,0.1,0.7,0.3,1
		c0.2,0.3,0.5,0.5,1,0.8c0.4,0.2,1.3,0.6,2.5,1.1c1.7,0.6,2.9,1.3,3.5,1.9C204.4,116.6,204.7,117.4,204.7,118.4z"/>
	<path class="st0" d="M214.4,122.6c-2.1,0-3.8-0.7-5.1-2c-1.2-1.3-1.9-3.1-1.9-5.4c0-2.3,0.6-4.2,1.7-5.6c1.2-1.4,2.7-2.1,4.6-2.1
		c1.8,0,3.3,0.6,4.3,1.8c1.1,1.2,1.6,2.8,1.6,4.7v1.4h-10c0,1.7,0.5,3,1.3,3.9s2,1.3,3.5,1.3c1.6,0,3.1-0.3,4.6-1v2
		c-0.8,0.3-1.5,0.6-2.2,0.7C216.2,122.5,215.4,122.6,214.4,122.6z M213.8,109.4c-1.2,0-2.1,0.4-2.8,1.1s-1.1,1.8-1.2,3.2h7.6
		c0-1.4-0.3-2.4-0.9-3.2C215.8,109.7,214.9,109.4,213.8,109.4z"/>
	<path class="st0" d="M241.8,117.2c0,1.7-0.6,3-1.9,4s-2.9,1.4-5,1.4c-2.3,0-4.1-0.3-5.3-0.9v-2.2c0.8,0.3,1.7,0.6,2.6,0.8
		c0.9,0.2,1.9,0.3,2.8,0.3c1.5,0,2.6-0.3,3.4-0.9s1.1-1.4,1.1-2.4c0-0.7-0.1-1.2-0.4-1.6c-0.3-0.4-0.7-0.8-1.4-1.2
		c-0.6-0.4-1.6-0.8-2.9-1.2c-1.8-0.6-3.1-1.4-3.9-2.3c-0.8-0.9-1.2-2-1.2-3.5c0-1.5,0.6-2.7,1.7-3.6c1.1-0.9,2.6-1.3,4.5-1.3
		c1.9,0,3.7,0.4,5.3,1.1l-0.7,2c-1.6-0.7-3.2-1-4.7-1c-1.2,0-2.1,0.3-2.8,0.8c-0.7,0.5-1,1.2-1,2.1c0,0.7,0.1,1.2,0.4,1.6
		c0.2,0.4,0.7,0.8,1.3,1.2c0.6,0.4,1.5,0.8,2.7,1.2c2,0.7,3.4,1.5,4.2,2.3C241.4,114.8,241.8,115.8,241.8,117.2z"/>
	<path class="st0" d="M245.2,103.9c0-0.5,0.1-0.9,0.4-1.1c0.2-0.2,0.6-0.4,0.9-0.4c0.4,0,0.7,0.1,0.9,0.4c0.3,0.2,0.4,0.6,0.4,1.1
		s-0.1,0.9-0.4,1.1c-0.3,0.2-0.6,0.4-0.9,0.4c-0.4,0-0.7-0.1-0.9-0.4C245.4,104.7,245.2,104.4,245.2,103.9z M247.6,122.3h-2.2v-14.5
		h2.2V122.3z"/>
	<path class="st0" d="M264.2,107.8v1.4l-2.7,0.3c0.2,0.3,0.5,0.7,0.7,1.2c0.2,0.5,0.3,1.1,0.3,1.7c0,1.4-0.5,2.6-1.5,3.4
		c-1,0.8-2.3,1.3-4,1.3c-0.4,0-0.8,0-1.2-0.1c-0.9,0.5-1.4,1.1-1.4,1.9c0,0.4,0.2,0.7,0.5,0.9c0.3,0.2,0.9,0.3,1.7,0.3h2.6
		c1.6,0,2.8,0.3,3.6,1c0.8,0.7,1.3,1.6,1.3,2.9c0,1.6-0.6,2.8-1.9,3.7s-3.2,1.3-5.6,1.3c-1.9,0-3.4-0.4-4.4-1.1
		c-1-0.7-1.5-1.7-1.5-3c0-0.9,0.3-1.6,0.8-2.3c0.6-0.6,1.4-1.1,2.4-1.3c-0.4-0.2-0.7-0.4-0.9-0.8c-0.3-0.4-0.4-0.8-0.4-1.2
		c0-0.5,0.1-1,0.4-1.4c0.3-0.4,0.7-0.8,1.3-1.2c-0.8-0.3-1.4-0.8-1.8-1.6c-0.5-0.7-0.7-1.6-0.7-2.5c0-1.6,0.5-2.8,1.4-3.7
		s2.3-1.3,4.1-1.3c0.8,0,1.4,0.1,2.1,0.3H264.2z M252.6,124.8c0,0.8,0.3,1.4,1,1.8c0.7,0.4,1.6,0.6,2.8,0.6c1.8,0,3.2-0.3,4.1-0.8
		c0.9-0.6,1.3-1.3,1.3-2.2c0-0.8-0.2-1.3-0.7-1.6c-0.5-0.3-1.4-0.5-2.7-0.5h-2.6c-1,0-1.8,0.2-2.3,0.7
		C252.9,123.2,252.6,123.9,252.6,124.8z M253.8,112.4c0,1,0.3,1.8,0.9,2.3c0.6,0.5,1.4,0.8,2.4,0.8c2.1,0,3.2-1,3.2-3.1
		c0-2.2-1.1-3.3-3.3-3.3c-1,0-1.8,0.3-2.4,0.8C254.1,110.5,253.8,111.4,253.8,112.4z"/>
	<path class="st0" d="M277.1,122.3v-9.4c0-1.2-0.3-2.1-0.8-2.7c-0.5-0.6-1.4-0.9-2.5-0.9c-1.5,0-2.6,0.4-3.3,1.2
		c-0.7,0.8-1.1,2.2-1.1,4.1v7.6h-2.2v-14.5h1.8l0.4,2h0.1c0.5-0.7,1.1-1.3,1.9-1.7c0.8-0.4,1.7-0.6,2.7-0.6c1.7,0,3.1,0.4,3.9,1.3
		c0.9,0.8,1.3,2.2,1.3,4v9.5H277.1z"/>
	<path class="st0" d="M305.9,122.3h-2.3v-9.1h-10.2v9.1h-2.3v-19.4h2.3v8.2h10.2v-8.2h2.3V122.3z"/>
	<path class="st0" d="M317,122.6c-2.1,0-3.8-0.7-5.1-2c-1.2-1.3-1.9-3.1-1.9-5.4c0-2.3,0.6-4.2,1.7-5.6c1.2-1.4,2.7-2.1,4.6-2.1
		c1.8,0,3.3,0.6,4.3,1.8c1.1,1.2,1.6,2.8,1.6,4.7v1.4h-10c0,1.7,0.5,3,1.3,3.9s2,1.3,3.5,1.3c1.6,0,3.1-0.3,4.6-1v2
		c-0.8,0.3-1.5,0.6-2.2,0.7C318.8,122.5,318,122.6,317,122.6z M316.4,109.4c-1.2,0-2.1,0.4-2.8,1.1c-0.7,0.8-1.1,1.8-1.2,3.2h7.6
		c0-1.4-0.3-2.4-0.9-3.2C318.5,109.7,317.6,109.4,316.4,109.4z"/>
	<path class="st0" d="M332.7,107.5c0.6,0,1.2,0.1,1.7,0.2l-0.3,2c-0.6-0.1-1.1-0.2-1.6-0.2c-1.2,0-2.2,0.5-3,1.4
		c-0.8,1-1.3,2.1-1.3,3.6v7.8h-2.2v-14.5h1.8l0.3,2.7h0.1c0.5-0.9,1.2-1.7,1.9-2.2S331.8,107.5,332.7,107.5z"/>
	<path class="st0" d="M343.3,122.6c-2.1,0-3.8-0.7-5.1-2c-1.2-1.3-1.9-3.1-1.9-5.4c0-2.3,0.6-4.2,1.7-5.6c1.2-1.4,2.7-2.1,4.6-2.1
		c1.8,0,3.3,0.6,4.3,1.8c1.1,1.2,1.6,2.8,1.6,4.7v1.4h-10c0,1.7,0.5,3,1.3,3.9s2,1.3,3.5,1.3c1.6,0,3.1-0.3,4.6-1v2
		c-0.8,0.3-1.5,0.6-2.2,0.7C345.1,122.5,344.3,122.6,343.3,122.6z M342.7,109.4c-1.2,0-2.1,0.4-2.8,1.1c-0.7,0.8-1.1,1.8-1.2,3.2
		h7.6c0-1.4-0.3-2.4-0.9-3.2C344.8,109.7,343.9,109.4,342.7,109.4z"/>
</g>
<g>
	<rect x="40" y="202.9" class="st0" width="413" height="4"/>
</g>
<g>
	<path class="st0" d="M58.1,190.8l-1.9,1.9c-0.3,0.3-0.6,0.4-1,0.4s-0.7-0.1-1-0.4l-4.2-4.2l-4.2,4.2c-0.3,0.3-0.6,0.4-1,0.4
		s-0.7-0.1-1-0.4l-1.9-1.9c-0.3-0.3-0.4-0.6-0.4-1s0.1-0.7,0.4-1l4.2-4.2l-4.2-4.2c-0.3-0.3-0.4-0.6-0.4-1s0.1-0.7,0.4-1l1.9-1.9
		c0.3-0.3,0.6-0.4,1-0.4s0.7,0.1,1,0.4l4.2,4.2l4.2-4.2c0.3-0.3,0.6-0.4,1-0.4s0.7,0.1,1,0.4l1.9,1.9c0.3,0.3,0.4,0.6,0.4,1
		s-0.1,0.7-0.4,1l-4.2,4.2l4.2,4.2c0.3,0.3,0.4,0.6,0.4,1S58.4,190.5,58.1,190.8z"/>
</g>
</svg>
