<svg fill="#000000" xmlns="http://www.w3.org/2000/svg" xmlns:xlink="http://www.w3.org/1999/xlink" version="1.1" x="0px" y="0px" viewBox="0 0 100 29.086" enable-background="new 0 0 100 29.086" xml:space="preserve"><g><path fill="#000000" d="M99.011,27.47l-0.145-0.912c-0.426,0.068-6.813,0.656-98.48,0.656v1.872   c50.979,0,75.098-0.185,86.356-0.341C100,28.563,100,28.563,100,27.47H99.011z"/><path fill="#000000" d="M0.566,25.983c0.414,0,1.098-0.549,4.354-3.645c0.99,0.943,2.177,2.078,3.601,3.445l1.296-1.349   c-1.392-1.336-2.544-2.442-3.538-3.393c1.003-0.959,2.189-2.096,3.602-3.452l-1.296-1.353c-1.458,1.4-2.663,2.552-3.666,3.506   c-4.04-3.842-4.172-3.814-4.677-3.648l0.307,0.936L0,17.751c0.055,0.04,0.542,0.438,3.554,3.289   c-2.956,2.799-3.436,3.189-3.491,3.231L0.6,25.038l-0.294,0.889C0.396,25.958,0.475,25.983,0.566,25.983z"/><path fill="#000000" d="M24.872,24.087c1.305-1.215,2.339-2.71,3.376-4.146c2.641-4.056,4.927-8.323,7.37-12.497   c0.287-0.484,0.569-0.971,0.854-1.456c-0.392,2.052-0.89,4.084-1.389,6.112c-0.697,2.871-1.616,5.689-2.201,8.585   c-0.203,1.218-0.189,2.453-0.201,3.681c0.071,0.434,0.348,0.771,0.84,0.501c3.019-1.674,2.969-1.601,4.759-3.293   c0.044-0.042,0.087-0.084,0.132-0.126c0.375,0.42,0.811,1.321,1.043,1.716c0.56,0.862,1.028,1.16,2.062,1.118   c1.176-0.285,2.356-0.513,3.561-0.641c0.669-0.054,0.508-0.043,0.886-0.064c-0.232,0.185-0.458,0.377-0.705,0.545l4.687-1.881   c1.225-0.89,2.225-2.026,3.209-3.169c0.689,1.395,0.905,2.99,1.08,4.523c0.07,0.248,0.096,0.514,0.205,0.747   c0.541,1.181,1.743,0.763,2.619,0.251c1.724-1.004,3.421-2.053,5.13-3.08c0.115-0.084,0.229-0.166,0.344-0.248   c0.101,0.007,0.204,0.009,0.303,0.04c0.467,0.151,0.896,0.544,1.32,0.784c0.645,0.361,0.548,0.292,1.281,0.585   c1.716,0.462,3.457-0.041,5.187-0.132c2.416,0.082,4.822,0.314,7.239,0.374c1.158-0.015,2.343,0.094,3.457-0.279l3.922-3.136   c-1.005,0.685-2.288,0.495-3.444,0.564c-2.407,0.002-4.802-0.232-7.199-0.43c-0.854,0.004-0.877-0.025-1.707,0.094   c-1.111,0.158-2.219,0.44-3.345,0.181c-0.596-0.222-1.158-0.464-1.693-0.815c-0.444-0.29-0.411-0.358-0.883-0.606   c-0.17-0.092-0.354-0.157-0.53-0.236c-2.416,0.156-0.49-0.051-5.428,2.738c-0.673,0.38-1.304,0.828-1.927,1.283   c-0.314-0.155-0.424-0.64-0.504-0.964c-0.281-1.948-0.541-3.981-1.619-5.675c-0.174-0.171-0.289-0.592-0.518-0.512   c-4.567,1.617-4.635,2.068-6.998,4.949c-0.439,0.497-0.883,0.992-1.334,1.479c-0.066,0.006-0.145,0.012-0.243,0.019   c-1.19,0.113-2.376,0.264-3.525,0.61c-0.921,0.178-1.311,0.002-1.849-0.776c-0.349-0.579-0.833-1.648-1.294-2.084   c-0.103-0.097-0.232-0.158-0.348-0.237c-1.845-0.08-3.618,1.701-5.045,3.112c-0.002-1.009,0.02-2.021,0.177-3.019   c0.471-2.841,1.217-5.622,1.89-8.417c0.573-2.33,1.19-4.655,1.692-7.002c0.024-0.11,0.505-2.529,0.514-2.899   c0.006-0.29-0.093-0.572-0.14-0.858c-1.078,0.586-2.206,1.085-3.232,1.757c-0.189,0.124-0.233,0.388-0.344,0.585   c-0.203,0.364-0.396,0.732-0.596,1.097c-0.968,1.768-1.963,3.521-2.98,5.262c-2.435,4.214-4.759,8.501-7.514,12.523   c-0.936,1.231-1.859,2.454-2.969,3.54c-0.218,0.212-0.44,0.418-0.677,0.606c-0.161,0.13-0.694,0.446-0.514,0.346   c0.905-0.497,1.791-1.027,2.686-1.541l-2.787,2.229C21.99,25.358,23.774,25.109,24.872,24.087z M65.62,19.215   c-0.278,0.166-0.514,0.3-0.764,0.444c0.015-0.01,0.029-0.021,0.043-0.029C65.137,19.484,65.857,19.075,65.62,19.215z    M60.875,21.516c0.473-0.249-0.88,0.647-1.396,0.784c-0.008,0.002-0.011-0.004-0.021-0.002   C59.93,22.035,60.398,21.766,60.875,21.516z M56.317,15.691c-0.218,0.134-0.395,0.226-0.596,0.341   c0.022-0.022,0.062-0.067,0.077-0.081C55.948,15.829,56.482,15.589,56.317,15.691z M35.888,23.015   c-0.029-0.022-0.04-0.059-0.049-0.096c0.148-0.082,0.292-0.174,0.444-0.248C36.501,22.563,35.912,23.033,35.888,23.015z"/></g></svg>