<svg fill="#000000" xmlns="http://www.w3.org/2000/svg" xmlns:xlink="http://www.w3.org/1999/xlink" version="1.1" x="0px" y="0px" viewBox="0 0 100 100" enable-background="new 0 0 100 100" xml:space="preserve"><g><path d="M6.452,70.322h24.402c0.802,0,1.451-0.65,1.451-1.451c0-0.802-0.65-1.451-1.451-1.451v0H7.904V32.581h22.95   c0.802,0,1.451-0.65,1.451-1.451c0-0.802-0.65-1.451-1.451-1.451l-24.402,0c-0.382,0-0.756,0.155-1.026,0.425   C5.155,30.373,5,30.747,5,31.129v37.742c0,0.382,0.155,0.756,0.425,1.026C5.696,70.167,6.07,70.322,6.452,70.322z"/><path d="M95,31.129c0-0.382-0.155-0.756-0.425-1.027c-0.27-0.27-0.644-0.425-1.026-0.425H55.357c-0.802,0-1.452,0.65-1.452,1.452   c0,0.802,0.65,1.452,1.452,1.452v0h36.74v34.839h-36.74c-0.802,0-1.452,0.65-1.452,1.452c0,0.802,0.65,1.452,1.452,1.452l38.191,0   c0.382,0,0.756-0.155,1.026-0.425c0.27-0.27,0.425-0.644,0.425-1.026V31.129z"/><path d="M24.563,58.71c0.802,0,1.452-0.65,1.452-1.452V44.194h4.839c0.802,0,1.452-0.65,1.452-1.452   c0-0.802-0.65-1.452-1.452-1.452H18.273c-0.802,0-1.452,0.65-1.452,1.452c0,0.802,0.65,1.452,1.452,1.452h4.839v13.064   C23.112,58.06,23.762,58.71,24.563,58.71z"/><path d="M48.234,7.904c0.802,0,1.452-0.65,1.452-1.452C49.685,5.65,49.035,5,48.234,5H38.073c-0.802,0-1.452,0.65-1.452,1.452   c0,0.802,0.65,1.452,1.452,1.452h3.629v84.193h-3.629c-0.802,0-1.452,0.65-1.452,1.452c0,0.802,0.65,1.452,1.452,1.452h10.161   c0.802,0,1.452-0.65,1.452-1.452c0-0.802-0.65-1.452-1.452-1.452h-3.629V7.904H48.234z"/></g></svg>