<svg width="40" height="25" viewBox="0 0 40 25" fill="none" xmlns="http://www.w3.org/2000/svg">
<mask id="mask0" mask-type="alpha" maskUnits="userSpaceOnUse" x="0" y="0" width="40" height="25">
<path d="M37.9925 24.3418H2.00747C0.900136 24.3418 0 23.4278 0 22.2956V2.38796C0 1.25582 0.896739 0.341797 2.00747 0.341797H37.9925C39.0999 0.341797 40 1.25582 40 2.38796V22.2956C40 23.4278 39.1033 24.3418 37.9925 24.3418Z" fill="white"/>
</mask>
<g mask="url(#mask0)">
<path d="M37.9925 0.341994C39.0998 0.341994 39.9999 1.25602 39.9999 2.38816V22.2958C39.9999 23.4245 39.1032 24.342 37.9925 24.342H2.00739C0.900051 24.342 -8.4877e-05 23.428 -8.4877e-05 22.2958V2.38816C-8.4877e-05 1.25602 0.896654 0.341994 2.00739 0.341994H37.9925ZM37.9925 0.168884H2.00739C0.804942 0.168884 -0.169922 1.16254 -0.169922 2.38816V22.2958C-0.169922 23.518 0.804942 24.5151 2.00739 24.5151H37.9925C39.1915 24.5151 40.1698 23.5215 40.1698 22.2958V2.38816C40.1698 1.16254 39.1949 0.168884 37.9925 0.168884Z" fill="#BCBCBC"/>
<path fill-rule="evenodd" clip-rule="evenodd" d="M-0.251465 -0.412903H40.2445V14.1249V20.1561V25.0862H-0.251465V12.1099V9.23972V-0.412903Z" fill="#2F6EB5"/>
<path fill-rule="evenodd" clip-rule="evenodd" d="M7.60889 20.6025V14.1248H14.3412L15.0613 15.0838L15.8086 14.1248H40.2448V20.1594C40.2448 20.1594 39.6062 20.6025 38.8691 20.606H25.3365L24.5213 19.5846V20.606H21.8514V18.8645C21.8514 18.8645 21.488 19.1069 20.6965 19.1069H19.7896V20.606H15.7475L15.0274 19.6262L14.2971 20.606L7.60889 20.6025Z" fill="white"/>
<path fill-rule="evenodd" clip-rule="evenodd" d="M-0.251465 9.23974L1.26688 5.63559H3.89256L4.75533 7.65405V5.63559H8.0162L8.52911 7.09318L9.02843 5.63559H23.6786V6.36957C23.6786 6.36957 24.4496 5.63559 25.7132 5.63559L30.4653 5.64944L31.311 7.64367V5.62866H34.042L34.7927 6.77465V5.62866H37.5508V12.1099H34.7927L34.0726 10.9605V12.1099H30.0644L29.6602 11.0886H28.5835L28.186 12.1099H25.4653C24.3783 12.1099 23.682 11.3898 23.682 11.3898V12.1099H19.5787L18.7635 11.0886V12.1099H3.50193L3.09772 11.0886H2.02435L1.62693 12.1099H-0.251465V9.23974Z" fill="white"/>
<path fill-rule="evenodd" clip-rule="evenodd" d="M1.80265 6.43195L-0.242188 11.286H1.09273L1.46977 10.3165H3.66746L4.0445 11.286H5.40659L3.36175 6.43195H1.80265ZM2.56012 7.56063L3.22928 9.26057H1.88757L2.56012 7.56063Z" fill="#2F6EB5"/>
<path fill-rule="evenodd" clip-rule="evenodd" d="M5.54199 11.286V6.43195L7.43737 6.43541L8.53452 9.5687L9.61468 6.43195H11.4931V11.286H10.2974V7.7095L9.03724 11.286H7.99444L6.73085 7.7095V11.286H5.54199Z" fill="#2F6EB5"/>
<path fill-rule="evenodd" clip-rule="evenodd" d="M12.3066 11.286V6.43195H16.1925V7.51562H13.5091V8.34655H16.1246V9.3679H13.5091V10.23H16.1925V11.286H12.3066Z" fill="#2F6EB5"/>
<path fill-rule="evenodd" clip-rule="evenodd" d="M16.8818 6.43195V11.286H18.0707V9.56178H18.57L19.9966 11.286H21.4539L19.888 9.49946C20.5333 9.44407 21.1923 8.88319 21.1923 8.01071C21.1923 6.98936 20.4077 6.43887 19.5279 6.43887H16.8818V6.43195ZM18.0707 7.51908H19.4328C19.7589 7.51908 19.9966 7.78221 19.9966 8.02802C19.9966 8.35001 19.6909 8.53697 19.4532 8.53697H18.0775L18.0707 7.51908Z" fill="#2F6EB5"/>
<path fill-rule="evenodd" clip-rule="evenodd" d="M22.8938 11.286H21.6777V6.43195H22.8938V11.286Z" fill="#2F6EB5"/>
<path fill-rule="evenodd" clip-rule="evenodd" d="M25.7742 11.2861H25.5126C24.2422 11.2861 23.4712 10.2682 23.4712 8.88328C23.4712 7.46032 24.2321 6.43896 25.8353 6.43896H27.1499V7.58842H25.7844C25.1356 7.58842 24.677 8.10775 24.677 8.89713C24.677 9.83539 25.2001 10.2335 25.961 10.2335H26.2735L25.7742 11.2861Z" fill="#2F6EB5"/>
<path fill-rule="evenodd" clip-rule="evenodd" d="M28.3632 6.43195L26.3184 11.286H27.6499L28.0269 10.3165H30.2246L30.6017 11.286H31.9637L29.9189 6.43195H28.3632ZM29.1241 7.56063L29.7932 9.26057H28.4515L29.1241 7.56063Z" fill="#2F6EB5"/>
<path fill-rule="evenodd" clip-rule="evenodd" d="M32.0986 11.286V6.43195H33.6102L35.5463 9.48215V6.43195H36.7352V11.286H35.2712L33.2909 8.15613V11.286H32.0986Z" fill="#2F6EB5"/>
<path fill-rule="evenodd" clip-rule="evenodd" d="M8.42334 19.7754V14.9214H12.3058V16.0085H9.62579V16.836H12.2447V17.8608H9.62579V18.7229H12.3058V19.7754H8.42334Z" fill="#2F6EB5"/>
<path fill-rule="evenodd" clip-rule="evenodd" d="M27.4556 19.7754V14.9214H31.3346V16.0085H28.6546V16.836H31.2599V17.8608H28.6546V18.7229H31.3346V19.7754H27.4556Z" fill="#2F6EB5"/>
<path fill-rule="evenodd" clip-rule="evenodd" d="M12.4558 19.7754L14.3478 17.3761L12.4116 14.9214H13.913L15.0611 16.4413L16.2228 14.9214H17.663L15.754 17.3519L17.646 19.7754H16.1446L15.0271 18.2797L13.9334 19.7754H12.4558Z" fill="#2F6EB5"/>
<path fill-rule="evenodd" clip-rule="evenodd" d="M17.7886 14.9214V19.7754H19.008V18.2451H20.2614C21.3212 18.2451 22.1262 17.6704 22.1262 16.5555C22.1262 15.6311 21.4978 14.9214 20.4177 14.9214H17.7886ZM19.008 16.0189H20.3293C20.6724 16.0189 20.9204 16.2336 20.9204 16.5798C20.9204 16.9018 20.6792 17.1407 20.3293 17.1407H19.0148V16.0224H19.008V16.0189Z" fill="#2F6EB5"/>
<path fill-rule="evenodd" clip-rule="evenodd" d="M22.6426 14.9214V19.7754H23.8314V18.0512H24.3308L25.7574 19.7754H27.2146L25.6521 17.9889C26.2975 17.9335 26.9564 17.3726 26.9564 16.5002C26.9564 15.4788 26.1718 14.9283 25.292 14.9283L22.6426 14.9214ZM23.8314 16.0085H25.1935C25.5196 16.0085 25.7574 16.2716 25.7574 16.5175C25.7574 16.8394 25.4517 17.0264 25.2139 17.0264H23.8382V16.0085H23.8314Z" fill="#2F6EB5"/>
<path fill-rule="evenodd" clip-rule="evenodd" d="M31.8896 19.7754V18.7229H34.2674C34.6206 18.7229 34.7701 18.529 34.7701 18.3178C34.7701 18.1135 34.6172 17.9058 34.2674 17.9058H33.1906C32.2531 17.9058 31.7334 17.3242 31.7334 16.4517C31.7334 15.6761 32.2123 14.9214 33.6016 14.9214H35.9182L35.4189 16.0154H33.4148C33.031 16.0154 32.9155 16.2197 32.9155 16.4171C32.9155 16.6179 33.0615 16.8394 33.3536 16.8394H34.4814C35.5242 16.8394 35.9793 17.4419 35.9793 18.2313C35.9793 19.0795 35.4766 19.7789 34.427 19.7789L31.8896 19.7754Z" fill="#2F6EB5"/>
<path fill-rule="evenodd" clip-rule="evenodd" d="M36.2564 19.7754V18.7229H38.539C38.8922 18.7229 39.0417 18.529 39.0417 18.3178C39.0417 18.1135 38.8888 17.9058 38.539 17.9058H37.5607C36.6232 17.9058 36.1035 17.3242 36.1035 16.4517C36.1035 15.6761 36.5825 14.9214 37.9717 14.9214H40.2441L39.7448 16.0154H37.7849C37.4011 16.0154 37.2856 16.2197 37.2856 16.4171C37.2856 16.6179 37.4316 16.8394 37.7238 16.8394H38.753C39.7958 16.8394 40.2509 17.4419 40.2509 18.2313C40.2509 19.0795 39.7482 19.7789 38.6986 19.7789L36.2564 19.7754Z" fill="#2F6EB5"/>
</g>
</svg>
