<svg width="40" height="24" viewBox="0 0 40 24" fill="none" xmlns="http://www.w3.org/2000/svg">
<path d="M37.8142 23.843H2.13217C1.03416 23.843 0.141602 22.9419 0.141602 21.8259V2.20133C0.141602 1.08529 1.03079 0.184265 2.13217 0.184265H37.8142C38.9122 0.184265 39.8048 1.08529 39.8048 2.20133V21.8259C39.8048 22.9419 38.9156 23.843 37.8142 23.843Z" fill="white"/>
<path d="M37.841 0.170648C38.939 0.170648 39.8316 1.07167 39.8316 2.18771V21.8123C39.8316 22.9249 38.9424 23.8293 37.841 23.8293H2.15898C1.06096 23.8293 0.168407 22.9283 0.168407 21.8123V2.18771C0.168407 1.07167 1.0576 0.170648 2.15898 0.170648H37.841ZM37.841 0H2.15898C0.966655 0 0 0.979522 0 2.18771V21.8123C0 23.0171 0.966655 24 2.15898 24H37.841C39.03 24 40 23.0205 40 21.8123V2.18771C40 0.979522 39.0333 0 37.841 0Z" fill="#BCBCBC"/>
<path d="M0.168457 15.9371H39.8316V21.8074C39.8316 22.9234 38.9391 23.8278 37.8377 23.8278H2.16239C1.06101 23.8278 0.168457 22.9234 0.168457 21.8074V15.9371Z" fill="#F5A000"/>
<path d="M2.13882 0.169128H37.8545C38.9458 0.169128 39.8316 1.06674 39.8316 2.17254V8.0565H0.168457V2.16572C0.168457 1.06333 1.05091 0.169128 2.13882 0.169128Z" fill="#0053A8"/>
<path fill-rule="evenodd" clip-rule="evenodd" d="M26.965 12.5275L26.9683 12.548L26.0152 12.5514L26.8606 11.1009L26.965 12.5275ZM17.6723 15.077C17.615 15.0122 17.615 14.8961 17.6723 14.7255L19.6224 9.1794L19.737 9.05312L19.7336 9.03264L17.6049 9.02581C17.6049 9.03264 17.6016 9.03605 17.5948 9.03605C17.6184 9.1794 17.5982 9.33639 17.5409 9.50363L15.7727 14.664C15.7053 14.8552 15.6245 14.9951 15.5234 15.077H17.6723ZM22.9704 14.548C23.8562 13.6094 23.7956 12.7391 22.7851 11.9337C22.738 11.8961 22.4449 11.7016 21.906 11.3466C21.4177 11.0258 21.2021 10.8518 21.1954 10.5787C21.1853 10.2033 21.6635 9.90294 22.482 10.0326C22.9367 10.1043 23.3779 10.3262 23.809 10.7016L23.8562 10.6982L24.092 9.4183C23.681 9.13503 23.3038 8.95755 22.9603 8.87905C21.5995 8.56847 19.2856 9.08042 19.3463 10.9337C19.3665 11.5548 19.6999 12.0156 20.35 12.3227L20.515 12.4012C21.0135 12.6333 21.7275 12.9985 21.704 13.5616C21.6736 14.3603 19.9795 14.2238 19.0431 13.5343L18.6457 13.2169L18.6187 14.5207C18.612 14.7152 19.1172 14.9849 19.3968 15.0907C20.6059 15.5309 22.1048 15.4661 22.9704 14.548ZM28.8848 15.0634L28.8343 14.6777L28.4705 9.03605L26.6012 9.03946L26.5776 9.19305L23.0714 15.0804L24.742 15.077C24.6848 14.9473 24.678 14.8279 24.7218 14.7221L25.4224 13.5685L27.0862 13.5412C27.0862 13.5685 27.0963 13.9098 27.1165 14.5685C27.1233 14.7937 27.1132 14.961 27.0795 15.077L28.8848 15.0634ZM15.4729 9.05653L15.5099 9.25448L13.0714 13.0361C13.0613 13.0292 13.0512 13.0258 13.0377 13.0292L13.0209 9.06677H10.3735C10.4038 9.09748 10.4881 9.16916 10.6295 9.27837C10.7811 9.39783 10.8956 9.51728 10.9764 9.63673C11.1112 9.8381 11.1785 9.97803 11.1785 10.0565L11.192 15.0975L13.1118 15.1111L17.2749 9.05312L15.4729 9.05653Z" fill="#0053A8"/>
</svg>
