<svg version="1.1" xmlns="http://www.w3.org/2000/svg" xmlns:xlink="http://www.w3.org/1999/xlink" x="0px" y="0px"
	 viewBox="0 0 22 22" style="enable-background:new 0 0 22 22;" xml:space="preserve">
<g transform="translate(0,-952.36218)">
	<path d="M6.9,952.5C6.9,952.5,6.9,952.5,6.9,952.5c-0.1,0-0.1,0-0.1,0c0,0,0,0,0,0c0,0,0,0,0,0c0,0,0,0,0,0c0,0,0,0,0,0
		c0,0,0,0,0,0c0,0,0,0,0,0c0,0-0.1,0.1-0.1,0.1l-4.1,3.5c0,0-0.1,0.1-0.1,0.1c0,0,0,0,0,0c0,0,0,0,0,0c0,0,0,0,0,0c0,0,0,0,0,0
		c0,0,0,0,0,0c0,0,0,0,0,0c0,0,0,0,0,0c0,0,0,0,0,0c0,0,0,0,0,0c0,0,0,0,0,0c0,0,0,0,0,0c0,0,0,0,0,0c0,0,0,0,0,0c0,0,0,0,0,0
		c0,0,0,0,0,0.1v13.6c0,0.3,0.2,0.5,0.5,0.5h1.2v1c0,0.3,0.2,0.5,0.5,0.5h1.2v1.1c0,0.3,0.2,0.5,0.5,0.5h13.2c0.3,0,0.5-0.2,0.5-0.5
		v-17.3c0-0.3-0.2-0.5-0.5-0.5h-1.1v-1.1c0-0.3-0.2-0.5-0.5-0.5h-1.2v-1c0-0.3-0.2-0.5-0.5-0.5c0,0,0,0,0,0L6.9,952.5
		C7,952.5,7,952.5,6.9,952.5C7,952.5,7,952.5,6.9,952.5L6.9,952.5z M7.5,953.5h8v0.5H8.7c0,0,0,0,0,0c0,0,0,0,0,0c0,0-0.1,0-0.1,0
		c0,0-0.1,0-0.1,0.1c0,0,0,0,0,0c0,0,0,0,0,0l0,0c0,0,0,0,0,0l-0.8,0.7L7.5,953.5L7.5,953.5z M6.5,954v1.6L6,956.1H4.1L6.5,954z
		 M9.1,955h8v0.6h-6.8c0,0,0,0,0,0c0,0,0,0,0,0c0,0-0.1,0-0.1,0c0,0,0,0,0,0c0,0,0,0,0,0c0,0,0,0-0.1,0c0,0,0,0,0,0c0,0,0,0,0,0l0,0
		c0,0,0,0,0,0l-0.8,0.7L9.1,955L9.1,955z M8.2,955.5v1.6c0,0,0,0.1,0,0.1l-0.5,0.4c0,0,0,0,0,0H5.7L8.2,955.5z M3.2,957.1h1.6
		l-0.7,0.6c0,0,0,0,0,0l0,0c-0.1,0.1-0.1,0.1-0.1,0.2c0,0,0,0,0,0c0,0,0,0,0,0c0,0,0,0,0,0c0,0,0,0,0,0c0,0,0,0,0,0c0,0,0,0,0,0
		c0,0,0,0,0,0.1v11.6H3.2V957.1L3.2,957.1z M9.8,957.1v2.1H7.4L9.8,957.1z M11.7,958.1C11.7,958.1,11.7,958.1,11.7,958.1h5.7
		c0.3,0,0.5,0.2,0.5,0.5c0,0.3-0.2,0.5-0.5,0.5c0,0,0,0,0,0h-5.7c-0.3,0-0.5-0.2-0.5-0.5C11.2,958.3,11.4,958.1,11.7,958.1
		L11.7,958.1z M4.9,958.6h1.6l-0.7,0.6c0,0,0,0,0,0l0,0c0,0,0,0,0,0c0,0,0,0,0,0c0,0,0,0,0,0c0,0,0,0,0,0c0,0,0,0,0,0c0,0,0,0,0,0
		c0,0,0,0,0,0c0,0,0,0,0,0c0,0,0,0,0,0c0,0,0,0,0,0c0,0,0,0,0,0c0,0,0,0,0,0c0,0,0,0,0,0c0,0,0,0,0,0c0,0,0,0,0,0c0,0,0,0,0,0
		c0,0,0,0,0,0c0,0,0,0,0,0.1v11.5H4.9V958.6L4.9,958.6z M11.7,960C11.7,960,11.7,960,11.7,960h5.8c0.3,0,0.5,0.2,0.5,0.5
		c0,0.3-0.2,0.5-0.5,0.5c0,0,0,0,0,0h-5.7c-0.3,0-0.5-0.2-0.5-0.5C11.2,960.2,11.4,960,11.7,960z M8.4,962C8.5,962,8.5,962,8.4,962
		h9.1c0.3,0,0.5,0.2,0.5,0.5c0,0.3-0.2,0.5-0.5,0.5c0,0,0,0,0,0h-9c-0.3,0-0.5-0.2-0.5-0.5C8,962.2,8.2,962,8.4,962z M8.4,963.9
		C8.5,963.9,8.5,963.9,8.4,963.9h9c0.3,0,0.5,0.2,0.5,0.5c0,0.3-0.2,0.5-0.5,0.5c0,0,0,0,0,0h-9c-0.3,0-0.5-0.2-0.5-0.5
		C8,964.2,8.2,964,8.4,963.9z M8.5,965.9C8.5,965.9,8.5,965.9,8.5,965.9h9c0.3,0,0.5,0.2,0.5,0.5c0,0.3-0.2,0.5-0.5,0.5c0,0,0,0,0,0
		H8.5c-0.3,0-0.5-0.2-0.5-0.5C8,966.1,8.2,965.9,8.5,965.9L8.5,965.9z M8.5,967.9C8.5,967.9,8.5,967.9,8.5,967.9h8.9
		c0.3,0,0.5,0.2,0.5,0.5c0,0.3-0.2,0.5-0.5,0.5c0,0,0,0,0,0H8.5c-0.3,0-0.5-0.2-0.5-0.5C8,968.1,8.2,967.9,8.5,967.9
		C8.5,967.9,8.5,967.9,8.5,967.9z M8.5,969.8C8.5,969.8,8.5,969.8,8.5,969.8h9c0.3,0,0.5,0.2,0.5,0.5c0,0.3-0.2,0.5-0.5,0.5
		c0,0,0,0,0,0H8.5c-0.3,0-0.5-0.2-0.5-0.5C8,970,8.2,969.8,8.5,969.8C8.5,969.8,8.5,969.8,8.5,969.8z"/>
</g>
</svg>
