<?xml version="1.0" encoding="utf-8"?>
<!-- Generator: Adobe Illustrator 20.0.0, SVG Export Plug-In . SVG Version: 6.00 Build 0)  -->
<!DOCTYPE svg PUBLIC "-//W3C//DTD SVG 1.1//EN" "http://www.w3.org/Graphics/SVG/1.1/DTD/svg11.dtd">
<svg version="1.1" id="Layer_1" xmlns="http://www.w3.org/2000/svg" xmlns:xlink="http://www.w3.org/1999/xlink" x="0px" y="0px"
	 viewBox="0 0 64 64" style="enable-background:new 0 0 64 64;" xml:space="preserve">
<style type="text/css">
	.st0{fill:#010101;}
</style>
<g transform="translate(0,-952.36218)">
	<path class="st0" d="M25.9,952.4C11.7,952.4,0,964,0,978.3c0,14.3,11.7,25.9,25.9,25.9c5.5,0,10.6-1.7,14.8-4.7l15.5,15.5
		c1.8,1.8,4.7,1.8,6.5,0c1.8-1.8,1.8-4.7,0-6.5L47.1,993c2.9-4.2,4.7-9.3,4.7-14.8C51.8,964,40.2,952.4,25.9,952.4z M25.9,961.5
		c9.3,0,16.8,7.4,16.8,16.8S35.2,995,25.9,995c-9.3,0-16.8-7.5-16.8-16.8C9.1,969,16.6,961.5,25.9,961.5z"/>
</g>
</svg>
