<svg version="1.1"  xmlns="http://www.w3.org/2000/svg" xmlns:xlink="http://www.w3.org/1999/xlink" x="0px" y="0px" height="22" width="22" viewBox="0 0 64 64" style="enable-background:new 0 0 64 64;" xml:space="preserve">
        <path d="M9.8,47.7c2.8-1.2,5.6-2.5,8.4-3.7c5.2-2.3,10.4-4.6,15.6-6.9c0.5-0.2,0.8-0.2,1.1,0.3c5.4,6.7,10.8,13.4,16.2,20.1
            c0.1,0.1,0.2,0.2,0.3,0.4C38.9,67.3,18.2,64.1,9.8,47.7z"/>
		<path d="M63.2,33.7c0-0.9-0.1-1.8-0.2-2.6c-0.2-1-0.4-2-0.6-3.1c-0.2-0.8-0.5-1.6-0.7-2.4c-0.1-0.4-0.3-0.7-0.4-1
			c-0.2-0.6-0.5-1.2-0.8-1.8c-0.4-0.8-0.8-1.5-1.2-2.2c-0.5-0.9-1.1-1.8-1.7-2.6c-0.5-0.7-1.1-1.4-1.6-2c-0.7-0.8-1.5-1.6-2.3-2.3
			c-0.7-0.6-1.4-1.2-2.2-1.7c-1-0.7-2-1.4-3.1-1.9c-1-0.5-2-1-2.9-1.4c-3.1-1.3-6.3-1.9-9-1.9c0,0.2,0,0.4,0,0.6v11.6
			c0,0.9,0,1.8,0,2.8c0,1.1,0,2.2,0,3.4c0,0.9,0,1.8,0,2.8c0,1.1,0,2.2,0,3.4c0,0.9,0,1.8,0,2.8V34c0,0.4,0.1,0.8,0.4,1
			c0.4,0.5,0.8,1,1.2,1.5c0.5,0.7,1.1,1.3,1.6,2c0.7,0.8,1.3,1.6,2,2.4c0.5,0.7,1.1,1.3,1.6,2c0.7,0.8,1.3,1.6,2,2.4
			c0.5,0.7,1.1,1.3,1.6,2c0.7,0.8,1.3,1.6,2,2.4c0.5,0.7,1.1,1.3,1.6,2c0.4,0.5,0.7,0.9,1.1,1.4c0.8,1,1.6,2,2.4,2.9
			c2.8-2.4,5.1-5.5,6.8-9.1c0.5-1.1,1-2.2,1.3-3.4c0.4-1.2,0.7-2.5,0.9-3.8c0.2-1,0.3-1.9,0.4-2.9C63.3,35.9,63.3,34.8,63.2,33.7z
			 M38.4,8.9c0.2,0,0.5,0,0.7,0.1c0.2,0,0.3,0,0.5,0.1c0,0,0,0,0,0c0.1,0,0.2,0,0.3,0c0.2,0,0.4,0.1,0.5,0.1c0.2,0,0.4,0.1,0.6,0.1
			c0.2,0.1,0.5,0.1,0.7,0.2c0.1,0,0.3,0.1,0.4,0.1c0,0,0.1,0,0.1,0c0.1,0,0.2,0.1,0.3,0.1c0.1,0,0.2,0.1,0.3,0.1l-4.4,2.1L38.4,8.9
			L38.4,8.9z M38.4,14.6l7.7-3.5c0.1,0.1,0.3,0.1,0.4,0.2c0.6,0.3,1.1,0.6,1.7,0.9c0.1,0.1,0.3,0.2,0.4,0.2c0,0,0.1,0,0.1,0.1
			c0.1,0.1,0.3,0.2,0.4,0.3c0.1,0,0.2,0.1,0.2,0.1l-10.9,5L38.4,14.6L38.4,14.6z M51.6,14.6c0.2,0.1,0.4,0.3,0.5,0.4
			c0.2,0.1,0.4,0.3,0.5,0.5c0.1,0.1,0.3,0.3,0.4,0.4c0.1,0,0.1,0.1,0.2,0.2c0.1,0,0.1,0.1,0.2,0.2c0,0,0.1,0.1,0.1,0.1
			c0.1,0.1,0.1,0.1,0.2,0.2s0.1,0.1,0.2,0.2c0,0,0.1,0.1,0.1,0.1l-15.6,7.2c0-1.1,0-2.2,0-3.4L51.6,14.6z M38.4,26.8l17.3-8
			c0,0,0,0,0,0c0.2,0.2,0.3,0.4,0.5,0.6c0.2,0.3,0.4,0.6,0.6,0.9c0.2,0.2,0.3,0.5,0.5,0.7c0,0,0,0.1,0.1,0.1c0,0,0,0.1,0.1,0.1h0
			l-19,8.8C38.4,29.1,38.4,28,38.4,26.8z M38.8,34.3c-0.2-0.3-0.4-0.7-0.4-1.1V33l20.2-9.4c0.1,0.1,0.1,0.3,0.2,0.4
			c0.1,0.2,0.2,0.5,0.3,0.7c0.1,0.3,0.3,0.6,0.4,1c0.1,0.2,0.2,0.5,0.3,0.7l-19.9,9.2C39.5,35.2,39.1,34.7,38.8,34.3z M41.7,38
			c-0.1-0.1-0.2-0.2-0.3-0.3l0,0l19-8.8c0,0,0,0.1,0,0.1c0,0,0,0,0,0c0,0.2,0.1,0.3,0.1,0.5c0,0.1,0.1,0.3,0.1,0.4
			c0,0.2,0.1,0.4,0.1,0.6c0,0.2,0.1,0.4,0.1,0.6c0,0.3,0.1,0.5,0.1,0.8l-17.6,8.2C42.9,39.4,42.3,38.7,41.7,38z M57.5,48.5
			c-0.1,0.2-0.3,0.4-0.4,0.7c0,0,0,0,0,0.1c-0.1,0.2-0.3,0.4-0.4,0.7c-0.1,0.2-0.3,0.4-0.4,0.5c-0.1,0.1-0.2,0.2-0.2,0.3
			c-0.2,0.3-0.5,0.6-0.8,0.9c-0.1,0.1-0.2,0.2-0.3,0.3c-0.1,0.1-0.2,0.2-0.3,0.3c-0.1,0.1-0.2,0.2-0.3,0.3c-0.1,0.1-0.3,0.3-0.4,0.4
			c-0.6-0.7-1.2-1.4-1.7-2.2L57.5,48.5C57.5,48.5,57.5,48.5,57.5,48.5z M60.4,41.4c0,0.2-0.1,0.4-0.2,0.6c0,0.2-0.1,0.3-0.1,0.5
			c-0.1,0.2-0.1,0.4-0.2,0.6c-0.1,0.3-0.2,0.6-0.3,0.9c0,0,0,0,0,0c-0.1,0.3-0.2,0.7-0.4,1l-8.7,4c-0.7-0.8-1.3-1.6-2-2.4L60.5,41
			C60.5,41.1,60.5,41.3,60.4,41.4z M61.2,36.9c0,0.1,0,0.2,0,0.3c0,0.2,0,0.3,0,0.5c0,0.1,0,0.2,0,0.2c0,0,0,0.1,0,0.1h0l-14,6.5
			c0.2,0.3,0.4,0.5,0.6,0.8c-0.2-0.3-0.4-0.5-0.6-0.8c-0.3-0.4-0.7-0.8-1-1.2c-0.3-0.4-0.7-0.8-1-1.2c-0.3-0.3-0.5-0.7-0.8-1
			c0.3,0.3,0.5,0.7,0.8,1l16.2-7.5C61.2,35.4,61.2,36.1,61.2,36.9z"/>
		<path d="M32.7,0.9c-3.3,0-6.6,0.5-9.6,1.5C19.7,3.4,16.6,5,13.9,7c-2.8,2-5.2,4.5-7.2,7.3c-1.9,2.6-3.3,5.5-4.4,8.6
			c-1,3.1-1.6,6.4-1.6,9.9c0,0.4,0,0.8,0,1.2c0.1,1.6,0.3,3.2,0.7,4.7c0.3,1.2,0.7,2.9,1,4.4c0.2,0.7,0.5,1.3,0.7,1.9
			c9.5-3.7,18.9-8.1,29.5-12.3V20.1C32.7,13.7,32.7,7.3,32.7,0.9L32.7,0.9L32.7,0.9z"/>
</svg>
