<svg version="1.1" xmlns="http://www.w3.org/2000/svg" xmlns:xlink="http://www.w3.org/1999/xlink" x="0px" y="0px"
	 viewBox="0 0 64 64" style="enable-background:new 0 0 64 64;" xml:space="preserve">
<path d="M36.1,29.1C34.9,28.4,33.5,28,32,28c-4.4,0-8,3.6-8,8c0,0.3,0,0.6,0.1,0.9C14.8,38.9,8,42.4,8,32C8,18.7,18.7,8,32,8
	s24,10.7,24,24c0,10.5-6.7,6.9-16.1,4.9c0-0.3,0.1-0.6,0.1-0.9c0-1.5-0.4-2.9-1.1-4.1l10.2-10.2c0.8-0.8,0.8-2,0-2.8s-2-0.8-2.8,0
	L36.1,29.1z M32,64c17.7,0,32-14.3,32-32S49.7,0,32,0S0,14.3,0,32S14.3,64,32,64z"/>
</svg>
