<?xml version="1.0" encoding="utf-8"?>
<!-- Generator: Adobe Illustrator 20.0.0, SVG Export Plug-In . SVG Version: 6.00 Build 0)  -->
<!DOCTYPE svg PUBLIC "-//W3C//DTD SVG 1.1//EN" "http://www.w3.org/Graphics/SVG/1.1/DTD/svg11.dtd">
<svg version="1.1"
	 id="Layer_1" xmlns:cc="http://creativecommons.org/ns#" xmlns:dc="http://purl.org/dc/elements/1.1/" xmlns:inkscape="http://www.inkscape.org/namespaces/inkscape" xmlns:rdf="http://www.w3.org/1999/02/22-rdf-syntax-ns#" xmlns:sodipodi="http://sodipodi.sourceforge.net/DTD/sodipodi-0.dtd" xmlns:svg="http://www.w3.org/2000/svg"
	 xmlns="http://www.w3.org/2000/svg" xmlns:xlink="http://www.w3.org/1999/xlink" x="0px" y="0px" viewBox="0 0 64 64"
	 style="enable-background:new 0 0 64 64;" xml:space="preserve">
<path d="M32,23.4c-4.8,0-8.6,3.8-8.6,8.6c0,4.8,3.8,8.6,8.6,8.6s8.6-3.8,8.6-8.6C40.6,27.2,36.8,23.4,32,23.4z"/>
<g transform="translate(0,-992.3622)">
	<path d="M27.5,992.4l-2.2,7.8c-2,0.6-3.9,1.4-5.7,2.4l-7-3.9l-6.3,6.3l3.9,7c-1,1.8-1.8,3.7-2.4,5.7l-7.8,2.2v8.9l7.8,2.2
		c0.6,2,1.4,3.9,2.4,5.7l-3.9,7l6.3,6.3l7-3.9c1.8,1,3.7,1.8,5.7,2.4l2.2,7.8h8.9l2.2-7.8c2-0.6,3.9-1.4,5.7-2.4l7,3.9l6.3-6.3
		l-3.9-7c1-1.8,1.8-3.7,2.4-5.7l7.8-2.2v-8.9l-7.8-2.2c-0.6-2-1.4-3.9-2.4-5.7l3.9-7l-6.3-6.3l-7,3.9c-1.8-1-3.7-1.8-5.7-2.4
		l-2.2-7.8H27.5z M32,1010.8c7.4,0,13.5,6.1,13.5,13.5s-6.1,13.5-13.5,13.5s-13.5-6.1-13.5-13.5S24.6,1010.8,32,1010.8z"/>
</g>
</svg>
