<?xml version="1.0" encoding="utf-8"?>
<!-- Generator: Adobe Illustrator 20.0.0, SVG Export Plug-In . SVG Version: 6.00 Build 0)  -->
<!DOCTYPE svg PUBLIC "-//W3C//DTD SVG 1.1//EN" "http://www.w3.org/Graphics/SVG/1.1/DTD/svg11.dtd">
<svg version="1.1" id="Layer_1" xmlns="http://www.w3.org/2000/svg" xmlns:xlink="http://www.w3.org/1999/xlink" x="0px" y="0px"
	 viewBox="0 0 64 64" style="enable-background:new 0 0 64 64;" xml:space="preserve">
<path d="M7.4,28.4h49.2c2.4,0,4.5,2,4.5,4.5v26.4c0,2.4-2,4.4-4.5,4.4H7.4c-2.4,0-4.5-2-4.5-4.4V32.8C2.9,30.4,4.9,28.4,7.4,28.4
	L7.4,28.4z M37.1,42.5c0-6-10.1-5.9-10.1,0c0,2.1,0.9,3,2.2,3.8c-0.3,1.3,0,4.8,0,6.3c0,3.6,5.4,3.6,5.4,0c0-1.8,0.2-4.4,0-6.1
	C36,45.7,37.1,44.6,37.1,42.5L37.1,42.5z M42.6,25.3c0-20.1-21.2-20-21.2,0.4c-3.5,0-7.1,0-10.6,0c0-33.6,42.3-33.8,42.3-0.4
	C49.6,25.3,53.2,25.3,42.6,25.3z"/>
</svg>
