<svg version="1.1" xmlns="http://www.w3.org/2000/svg" xmlns:xlink="http://www.w3.org/1999/xlink" x="0px" y="0px" height="22" width="22"
	 viewBox="0 0 64 64" style="enable-background:new 0 0 64 64;" xml:space="preserve">
	<path class="icon-path-dark" d="M32,63.6c-1,0-2.1-0.3-3-0.9l-2.2-1.5c-0.5-0.3-1.1-0.3-1.6,0L23,62.7c-1.8,1.2-4.2,1.2-6,0l-2.2-1.5
		c-0.5-0.3-1.1-0.3-1.6,0l-2.7,1.8c-0.9,0.6-2,0.6-2.9,0.1c-0.9-0.5-1.5-1.5-1.5-2.5V3.3c0-1.1,0.6-2,1.5-2.5
		c0.9-0.5,2.1-0.4,2.9,0.1l2.7,1.8c0.5,0.3,1.1,0.3,1.6,0L17,1.3c1.8-1.2,4.2-1.2,6,0l2.2,1.5c0.5,0.3,1.1,0.3,1.6,0L29,1.3
		c1.8-1.2,4.2-1.2,6,0l2.2,1.5c0.5,0.3,1.1,0.3,1.6,0L41,1.3c1.8-1.2,4.2-1.2,6,0l2.2,1.5c0.5,0.3,1.1,0.3,1.6,0l2.7-1.8
		c0.9-0.6,2-0.6,2.9-0.1c0.9,0.5,1.5,1.5,1.5,2.5v57.4c0,1.1-0.6,2-1.5,2.5c-0.9,0.5-2.1,0.4-2.9-0.1l-2.7-1.8
		c-0.5-0.3-1.1-0.3-1.6,0L47,62.7c-1.8,1.2-4.2,1.2-6,0l-2.2-1.5c-0.5-0.3-1.1-0.3-1.6,0L35,62.7C34.1,63.3,33,63.6,32,63.6z M26,57
		c1,0,2.1,0.3,3,0.9l2.2,1.5c0.5,0.3,1.1,0.3,1.6,0l2.2-1.5c1.8-1.2,4.2-1.2,6,0l2.2,1.5c0.5,0.3,1.1,0.3,1.6,0l2.2-1.5
		c1.8-1.2,4.2-1.2,6,0l1,0.7V5.4l-1,0.7c-1.8,1.2-4.2,1.2-6,0l-2.2-1.5c-0.5-0.3-1.1-0.3-1.6,0L41,6.1c-1.8,1.2-4.2,1.2-6,0
		l-2.2-1.5c-0.5-0.3-1.1-0.3-1.6,0L29,6.1c-1.8,1.2-4.2,1.2-6,0l-2.2-1.5c-0.5-0.3-1.1-0.3-1.6,0l-2.2,1.5c-1.8,1.2-4.2,1.2-6,0
		l-1-0.7v53.2l1-0.7c1.8-1.2,4.2-1.2,6,0l2.2,1.5c0.5,0.3,1.1,0.3,1.6,0l2.2-1.5C23.9,57.3,25,57,26,57z"/>
<path class="icon-path" d="M44,22H20c-1.1,0-2-0.9-2-2s0.9-2,2-2H44c1.1,0,2,0.9,2,2S45.1,22,44,22z"/>
<path class="icon-path" d="M44,30H20c-1.1,0-2-0.9-2-2c0-1.1,0.9-2,2-2H44c1.1,0,2,0.9,2,2C46,29.1,45.1,30,44,30z"/>
<path class="icon-path" d="M44,38H20c-1.1,0-2-0.9-2-2s0.9-2,2-2H44c1.1,0,2,0.9,2,2S45.1,38,44,38z"/>
<path class="icon-path" d="M44,46h-8.5c-1.1,0-2-0.9-2-2s0.9-2,2-2H44c1.1,0,2,0.9,2,2S45.1,46,44,46z"/>
</svg>
