<svg version="1.1" xmlns="http://www.w3.org/2000/svg" xmlns:xlink="http://www.w3.org/1999/xlink" x="0px" y="0px" height="22" width="22"
	 viewBox="0 0 64 64" style="enable-background:new 0 0 64 64;" xml:space="preserve">
<path class="icon-path" d="M0.6,9.6v49c0,0.6,0.4,1,1,1h61.1c0.6,0,1-0.4,1-1v-49c0-0.6-0.4-1-1-1H1.6C1.1,8.6,0.6,9.1,0.6,9.6z M57.7,54.7h-5.8
	c-0.6,0-1-0.4-1-1V33.2h2.3c0.4,0,0.7-0.3,0.7-0.7v-3.5c0-0.4-0.3-0.7-0.7-0.7H11.1c-0.4,0-0.7,0.3-0.7,0.7v3.5
	c0,0.4,0.3,0.7,0.7,0.7h2.3v20.5c0,0.6-0.4,1-1,1H6.6c-0.6,0-1-0.4-1-1v-39c0-0.6,0.4-1,1-1h51.1c0.6,0,1,0.4,1,1v39
	C58.7,54.2,58.3,54.7,57.7,54.7z"/>
</svg>
