<svg version="1.1" xmlns="http://www.w3.org/2000/svg" xmlns:xlink="http://www.w3.org/1999/xlink" x="0px" y="0px" width="22" height="22"
	 viewBox="0 0 64 64" style="enable-background:new 0 0 64 64;" xml:space="preserve">
<path class="icon-path" d="M38.5,30.3c10.5,4.2,12.2,15.2,11,25.2H14.4c-1-9.9,0.7-21,11.1-25.2c-3.5-2.1-5.8-5.9-5.7-10.1c0.1-6.5,5.6-11.7,12.3-11.7
	c6.7,0.1,12.1,5.4,12,11.9C44.1,24.6,41.9,28.3,38.5,30.3L38.5,30.3z"/>
<path class="icon-path-dark" d="M11.3,43.8c1.2-5.8,4.4-10.9,10.7-13.4c-3.5-2.1-5.8-5.9-5.7-10.1c0-3.1,1.3-6,3.4-8.1c-1.6-1.6-3.8-2.6-6.3-2.7
	c-4.9-0.1-8.9,3.7-8.9,8.5c0,3.1,1.6,5.8,4.2,7.4c-7.6,3-8.9,11.2-8.1,18.4L11.3,43.8L11.3,43.8z"/>
<path  class="icon-path-dark" d="M52.7,43.8l10.7-0.1c0.8-7.2-0.4-15.4-8.1-18.4c2.5-1.5,4.2-4.3,4.2-7.4c-0.1-4.7-4-8.5-8.9-8.5c-2.5,0-4.7,1.1-6.3,2.7
	c2.1,2.2,3.5,5.1,3.4,8.3c0,4.2-2.3,7.8-5.7,9.9C48.4,32.8,51.5,37.9,52.7,43.8z"/>
</svg>
