<?xml version="1.0" encoding="utf-8"?>
<!-- Generator: Adobe Illustrator 22.0.1, SVG Export Plug-In . SVG Version: 6.00 Build 0)  -->
<!DOCTYPE svg PUBLIC "-//W3C//DTD SVG 1.1//EN" "http://www.w3.org/Graphics/SVG/1.1/DTD/svg11.dtd">
<svg version="1.1" id="Layer_1" xmlns="http://www.w3.org/2000/svg" xmlns:xlink="http://www.w3.org/1999/xlink" x="0px" y="0px"
	 viewBox="0 0 300 300" style="enable-background:new 0 0 300 300;" xml:space="preserve">
<style type="text/css">
	.st0{fill:#3F4040;}
</style>
<g>
	<path class="st0" d="M87.7,79.9c-12.8,0-23,10.6-23,23.7v56.1c0,10.9,15.7,10.9,15.7,0v-51.3h3.7v142.2c0,14.6,21,14.2,21,0v-83.3
		h3.6v83.3c0,14.2,21.1,14.6,21.1,0V108.5h3.6v51.3c0,11,15.7,11,15.6,0V104c0-12.1-9.3-24-23.3-24L87.7,79.9z"/>
	<circle class="st0" cx="106.8" cy="56.7" r="18.1"/>
	<path class="st0" d="M106.8,56.7"/>
	<path class="st0" d="M292.1,0H7.9C3.5,0,0,3.5,0,7.9v284.2c0,4.4,3.5,7.9,7.9,7.9h284.2c4.4,0,7.9-3.5,7.9-7.9V7.9
		C300,3.5,296.5,0,292.1,0z M197.9,284.2H15.8V15.8H198L197.9,284.2L197.9,284.2z M272.2,206.8l-19.7,19.7c-1,1-2.2,1.4-3.5,1.4
		c-1.3,0-2.5-0.5-3.5-1.4l-19.7-19.7c-1.4-1.4-1.8-3.5-1.1-5.4c0.8-1.8,2.6-3,4.6-3h11.8v-18.8c0-4.4,3.5-7.9,7.9-7.9
		c4.4,0,7.9,3.5,7.9,7.9v18.8h11.8c2,0,3.8,1.2,4.6,3C274,203.2,273.6,205.4,272.2,206.8z M268.8,101.6
		C268.7,101.6,268.7,101.6,268.8,101.6h-11.9v18.8c0,4.4-3.5,7.9-7.9,7.9c-4.4,0-7.9-3.5-7.9-7.9v-18.8h-11.8c-2,0-3.8-1.2-4.6-3
		c-0.8-1.8-0.3-4,1.1-5.4l19.7-19.7c1.9-1.9,5.1-1.9,7,0l19.4,19.4c1.1,0.9,1.8,2.3,1.8,3.8C273.7,99.4,271.5,101.6,268.8,101.6z"/>
</g>
</svg>
