<svg id="Layer_1" data-name="Layer 1" xmlns="http://www.w3.org/2000/svg" viewBox="0 0 258.39 433.26">
  <defs>
    <style>
      .cls-1 {
        fill: #3f4040;
      }
    </style>
  </defs>
  <title>loading_area</title>
  <g>
    <path class="cls-1" d="M244.9,234.53c-5.59,0-11,0-16.46-.05a1.89,1.89,0,0,1-1.3-1.14q-7.57-22.64-15-45.28-5.59-16.91-11.16-33.81L184.54,104.4q-7-21.24-14-42.45A61.37,61.37,0,0,0,168,54.87a14.25,14.25,0,0,0-26.75,9.5c1.16,5.11.23,8.32-3,10.35-4.92,3.12-10.75,1.17-12.52-4.4-3.22-10.15-1.51-19.66,4.78-28.15A30.83,30.83,0,0,1,165.86,32c9.54,3.72,15.71,10.59,18.9,20.32,4.62,14.18,9.34,28.32,14,42.48l20,60.68q11,33.48,22.06,67C242.21,226.53,243.59,230.62,244.9,234.53Z" transform="translate(-120.28 -27.07)"/>
    <path class="cls-1" d="M265.79,247.79,283.18,242l42.27-13.92c13.15-4.34,26.27-8.73,39.44-13A8.18,8.18,0,0,1,375.32,220a8,8,0,0,1-4.4,10.34l-.32.12c-6.67,2.49-13.53,4.62-20.32,6.86l-52,17.17c-7.44,2.46-14.88,4.9-22.29,7.43-1.61.55-2.27.22-3.07-1.43-1.8-3.74-4-7.3-6.05-10.92C266.59,249,266.27,248.55,265.79,247.79Z" transform="translate(-120.28 -27.07)"/>
    <path class="cls-1" d="M246.82,244.48A33.09,33.09,0,0,0,206.27,259a31.3,31.3,0,0,0-4,15.8h0c0,13.12,8.11,25.65,20.48,30.36a33.08,33.08,0,0,0,40.55-14.57,31.23,31.23,0,0,0,3.94-15.79h0C267.3,261.71,259.21,249.18,246.82,244.48ZM235,291.19a16.25,16.25,0,0,1-16.37-16.12v-.22h-.12a16.26,16.26,0,0,1,32.52-.23h0v.23h.11A16.43,16.43,0,0,1,235,291.2Z" transform="translate(-120.28 -27.07)"/>
    <path class="cls-1" d="M345.76,132q-5.58-16.54-11.1-33.1c-1.22-3.62-3.09-4.81-6.3-3.78q-22,7.34-43.94,14.74l-2.56.86,13.45,40-12,4.06-13.46-40L248.32,122c-8.14,2.74-16.3,5.45-24.41,8.31-3.59,1.25-4.54,3.15-3.41,6.48q7.44,22.19,14.91,44.36l14.92,44.34c1.39,4.1,2.86,8.18,4.25,12.29.67,2,2,3,4.53,3,.95-.26,2.36-.59,3.73-1l72.42-24.44,29.4-10c4-1.35,4.66-2.78,3.44-6.92-.18-.59-.32-1.18-.51-1.75Q356.69,164.33,345.76,132Z" transform="translate(-120.28 -27.07)"/>
    <path class="cls-1" d="M276.63,51.88q-3.72-11-7.4-22.06c-.81-2.41-2.06-3.21-4.19-2.5q-14.66,4.88-29.28,9.83l-1.71.57,9,26.65-8,2.72-9-26.7L211.7,45.21c-5.43,1.83-10.86,3.65-16.28,5.52-2.38.84-3,2.1-2.26,4.3q5,14.79,9.94,29.57T213,114.17c.92,2.74,1.91,5.46,2.83,8.2a2.79,2.79,0,0,0,3,2c.64-.17,1.58-.39,2.48-.69l48.29-16.31,19.6-6.62c2.65-.9,3.11-1.85,2.27-4.62-.12-.38-.22-.76-.34-1.16Q283.91,73.41,276.63,51.88Z" transform="translate(-120.28 -27.07)"/>
  </g>
  <g>
    <path d="M143.58,388.23v6.1h-23.3V354.57h7.4v33.66Z" transform="translate(-120.28 -27.07)"/>
    <path d="M188.12,374.45a22.33,22.33,0,0,1-1.44,8.1A19.06,19.06,0,0,1,182.6,389a18.7,18.7,0,0,1-6.35,4.25,23.09,23.09,0,0,1-16.48,0,18.84,18.84,0,0,1-6.36-4.25,19.31,19.31,0,0,1-4.12-6.45,23.35,23.35,0,0,1,0-16.2,19.31,19.31,0,0,1,4.12-6.45,18.84,18.84,0,0,1,6.36-4.25,21.62,21.62,0,0,1,8.23-1.52,22.23,22.23,0,0,1,5.69.7,20,20,0,0,1,4.89,2,17.83,17.83,0,0,1,4,3.11,18.32,18.32,0,0,1,3,4.08,19.71,19.71,0,0,1,1.89,4.89A23.4,23.4,0,0,1,188.12,374.45Zm-7.56,0a18.15,18.15,0,0,0-.88-5.87,12.55,12.55,0,0,0-2.5-4.42,10.67,10.67,0,0,0-4-2.77,14.61,14.61,0,0,0-10.47,0,10.79,10.79,0,0,0-4,2.77,12.59,12.59,0,0,0-2.52,4.42,20,20,0,0,0,0,11.74,12.41,12.41,0,0,0,2.52,4.4,10.88,10.88,0,0,0,4,2.76,14.61,14.61,0,0,0,10.47,0,10.76,10.76,0,0,0,4-2.76,12.37,12.37,0,0,0,2.5-4.4A18.15,18.15,0,0,0,180.56,374.45Z" transform="translate(-120.28 -27.07)"/>
    <path d="M230.26,394.33h-5.72a2.43,2.43,0,0,1-1.57-.48,2.91,2.91,0,0,1-.91-1.2l-3-8.11H202.62l-3,8.11a2.64,2.64,0,0,1-.85,1.16,2.4,2.4,0,0,1-1.57.52h-5.78l15.65-39.76h7.54Zm-13.07-15-4.84-13.23c-.24-.59-.48-1.28-.74-2.09s-.51-1.68-.77-2.61c-.24.93-.49,1.81-.74,2.62s-.51,1.53-.74,2.13l-4.82,13.18Z" transform="translate(-120.28 -27.07)"/>
    <path d="M272.44,374.45a21.56,21.56,0,0,1-1.46,8,18.42,18.42,0,0,1-4.1,6.3,18.23,18.23,0,0,1-6.35,4.09,22.19,22.19,0,0,1-8.25,1.46H237.13V354.57h15.15a22.19,22.19,0,0,1,8.25,1.47A18.1,18.1,0,0,1,271,366.42,21.52,21.52,0,0,1,272.44,374.45Zm-7.59,0a18.43,18.43,0,0,0-.87-5.87,12.08,12.08,0,0,0-2.5-4.4,11,11,0,0,0-4-2.77,13.59,13.59,0,0,0-5.24-1h-7.73v28h7.73a13.41,13.41,0,0,0,5.24-1,10.88,10.88,0,0,0,4-2.76,12.08,12.08,0,0,0,2.5-4.4A18.43,18.43,0,0,0,264.85,374.45Z" transform="translate(-120.28 -27.07)"/>
    <path d="M289.13,394.33h-7.42V354.57h7.42Z" transform="translate(-120.28 -27.07)"/>
    <path d="M334.29,354.57v39.76h-3.8a3,3,0,0,1-2.61-1.26l-20.76-26.51c.11,1.21.16,2.33.16,3.35v24.42h-6.52V354.57h3.88a6.44,6.44,0,0,1,.81,0,2.18,2.18,0,0,1,.61.16,2.65,2.65,0,0,1,.51.36,6.24,6.24,0,0,1,.55.62L328,382.37c0-.64-.1-1.27-.14-1.9s-.05-1.2-.05-1.73V354.57Z" transform="translate(-120.28 -27.07)"/>
    <path d="M378.67,374.39v16.09a21.1,21.1,0,0,1-6.45,3.26,25.17,25.17,0,0,1-7.33,1,24.42,24.42,0,0,1-8.81-1.51,19.72,19.72,0,0,1-6.74-4.21,18.41,18.41,0,0,1-4.3-6.43,21.6,21.6,0,0,1-1.51-8.17,22.46,22.46,0,0,1,1.45-8.22,18.09,18.09,0,0,1,10.65-10.62,23.47,23.47,0,0,1,8.58-1.48,25.74,25.74,0,0,1,4.52.38,23.12,23.12,0,0,1,3.9,1.06,16.84,16.84,0,0,1,3.29,1.64,19.13,19.13,0,0,1,2.72,2.11l-2.11,3.36a2,2,0,0,1-1.3,1,2.32,2.32,0,0,1-1.73-.4l-1.81-1.05a12.1,12.1,0,0,0-2-.91,18.37,18.37,0,0,0-2.51-.63,18.81,18.81,0,0,0-3.2-.25,13.71,13.71,0,0,0-5.32,1,11.25,11.25,0,0,0-4.06,2.84,12.67,12.67,0,0,0-2.58,4.42,17.27,17.27,0,0,0-.91,5.78,17.53,17.53,0,0,0,1,6.09,12.71,12.71,0,0,0,2.75,4.54,11.61,11.61,0,0,0,4.27,2.83,16.53,16.53,0,0,0,9.52.51,18.7,18.7,0,0,0,3.38-1.27V380h-5a1.5,1.5,0,0,1-1.11-.4,1.32,1.32,0,0,1-.4-1v-4.18Z" transform="translate(-120.28 -27.07)"/>
    <path d="M212.23,460.33h-5.72a2.45,2.45,0,0,1-1.57-.48,3.09,3.09,0,0,1-.91-1.2l-3-8.11H184.59l-3,8.11a2.64,2.64,0,0,1-.85,1.16,2.36,2.36,0,0,1-1.57.52h-5.77l15.64-39.76h7.54Zm-13.06-15-4.84-13.23c-.24-.59-.49-1.28-.75-2.09s-.51-1.68-.77-2.61c-.23.93-.48,1.81-.74,2.62s-.5,1.53-.74,2.13l-4.81,13.18Z" transform="translate(-120.28 -27.07)"/>
    <path d="M250.15,460.33h-6.68a2.92,2.92,0,0,1-2.75-1.48l-8.36-12.74a3,3,0,0,0-1-1,3.64,3.64,0,0,0-1.67-.31H226.5v15.54h-7.4V420.57h12.13a25.1,25.1,0,0,1,6.94.84,13.09,13.09,0,0,1,4.76,2.35,9.23,9.23,0,0,1,2.74,3.61,12.58,12.58,0,0,1,.29,8.43,11.11,11.11,0,0,1-1.71,3.25,11.4,11.4,0,0,1-2.75,2.55,13.85,13.85,0,0,1-3.72,1.74,7.72,7.72,0,0,1,1.32,1,7,7,0,0,1,1.1,1.34Zm-19-20.84a11.36,11.36,0,0,0,3.64-.53,7,7,0,0,0,2.56-1.44,5.72,5.72,0,0,0,1.5-2.19,7.5,7.5,0,0,0,.5-2.77,5.65,5.65,0,0,0-2-4.65q-2-1.62-6.09-1.62H226.5v13.2Z" transform="translate(-120.28 -27.07)"/>
    <path d="M264.64,426.45v11h13.92v5.69H264.64v11.25H282.3v5.91H257.22V420.57H282.3v5.88Z" transform="translate(-120.28 -27.07)"/>
    <path d="M325.67,460.33H320a2.43,2.43,0,0,1-1.57-.48,2.91,2.91,0,0,1-.91-1.2l-3-8.11H298l-3,8.11a2.64,2.64,0,0,1-.85,1.16,2.4,2.4,0,0,1-1.57.52h-5.78l15.65-39.76H310Zm-13.07-15-4.84-13.23c-.24-.59-.48-1.28-.74-2.09s-.51-1.68-.77-2.61c-.24.93-.49,1.81-.74,2.62s-.51,1.53-.74,2.13L300,445.32Z" transform="translate(-120.28 -27.07)"/>
  </g>
</svg>
