<?xml version="1.0" encoding="utf-8"?>
<!-- Generator: Adobe Illustrator 22.0.1, SVG Export Plug-In . SVG Version: 6.00 Build 0)  -->
<!DOCTYPE svg PUBLIC "-//W3C//DTD SVG 1.1//EN" "http://www.w3.org/Graphics/SVG/1.1/DTD/svg11.dtd">
<svg version="1.1" id="Layer_1" xmlns="http://www.w3.org/2000/svg" xmlns:xlink="http://www.w3.org/1999/xlink" x="0px" y="0px"
	 viewBox="0 0 300 300" style="enable-background:new 0 0 300 300;" xml:space="preserve">
<style type="text/css">
	.st0{fill:#3F4040;}
</style>
<g>
	<polygon class="st0" points="231.7,219.9 231.7,176.6 188.4,176.6 188.4,133.3 145.1,133.3 145.1,90 101.8,90 101.8,46.7 
		101.7,46.7 68.4,46.7 25,46.7 25,80.7 68.4,80.7 68.4,123.4 111.7,123.4 111.7,166.7 155,166.7 155,210 198.3,210 198.3,253.3 
		275,253.3 275,219.9 	"/>
	<path class="st0" d="M210.6,101.5l32.9,33c3.1,3.1,8.5,3.1,11.6,0c3.2-3.2,3.2-8.4,0-11.6l-32.9-33L235,77.2l-50.7-13.6l13.6,50.7
		L210.6,101.5z"/>
</g>
</svg>
